<svg width="120" height="40" viewBox="0 0 120 40" fill="none" xmlns="http://www.w3.org/2000/svg">
<path d="M110.471 7.92969e-06H9.87062C9.50392 7.92969e-06 9.14162 7.92975e-06 8.77589 0.00200793C8.46974 0.00400793 8.16603 0.00981793 7.85694 0.0147079C7.18545 0.0226097 6.51554 0.0816842 5.85304 0.191418C5.19146 0.303541 4.55061 0.514924 3.95216 0.818418C3.35444 1.12448 2.80828 1.52218 2.33351 1.99708C1.85624 2.47064 1.4584 3.01802 1.15529 3.61817C0.851338 4.21712 0.640578 4.85895 0.530288 5.52149C0.418948 6.18319 0.359036 6.85253 0.351088 7.52349C0.341808 7.83009 0.340827 8.13771 0.335938 8.44435V31.5586C0.340827 31.8691 0.341808 32.1699 0.351088 32.4805C0.359038 33.1514 0.418951 33.8207 0.530288 34.4824C0.640273 35.1453 0.851046 35.7875 1.15529 36.3867C1.45826 36.9849 1.85616 37.5301 2.33351 38.001C2.80648 38.478 3.35299 38.876 3.95216 39.1797C4.55061 39.484 5.19139 39.6967 5.85304 39.8105C6.51566 39.9194 7.18549 39.9785 7.85694 39.9873C8.16603 39.9941 8.46974 39.998 8.77589 39.998C9.14161 40 9.50394 40 9.87062 40H110.471C110.83 40 111.195 40 111.555 39.998C111.859 39.998 112.172 39.9941 112.477 39.9873C113.147 39.9789 113.815 39.9198 114.477 39.8105C115.14 39.6959 115.783 39.4833 116.385 39.1797C116.983 38.8758 117.529 38.4779 118.002 38.001C118.478 37.5282 118.877 36.9835 119.184 36.3867C119.486 35.7871 119.694 35.145 119.803 34.4824C119.914 33.8206 119.976 33.1515 119.988 32.4805C119.992 32.1699 119.992 31.8691 119.992 31.5586C120 31.1953 120 30.834 120 30.4648V9.53614C120 9.16993 120 8.80665 119.992 8.44435C119.992 8.13771 119.992 7.83009 119.988 7.52345C119.976 6.85243 119.914 6.18324 119.803 5.52145C119.694 4.85929 119.485 4.21751 119.184 3.61813C118.566 2.4152 117.588 1.43603 116.385 0.818328C115.783 0.515575 115.14 0.304248 114.477 0.191328C113.815 0.0811107 113.147 0.0220157 112.477 0.0145679C112.172 0.00968793 111.859 0.00382793 111.555 0.00187793C111.195 -0.00012207 110.83 -0.00012207 110.471 -0.00012207V7.92969e-06Z" fill="#A6A6A6"/>
<path d="M8.78077 39.125C8.47609 39.125 8.17877 39.1211 7.87648 39.1143C7.25026 39.1061 6.6255 39.0516 6.00734 38.9512C5.43093 38.8519 4.87254 38.6673 4.3506 38.4033C3.83344 38.1415 3.36175 37.7983 2.9536 37.3867C2.53954 36.98 2.19481 36.5082 1.93309 35.9902C1.66848 35.4688 1.48535 34.9099 1.39009 34.333C1.28721 33.7131 1.23155 33.0863 1.22359 32.458C1.21725 32.2471 1.20895 31.5449 1.20895 31.5449V8.44434C1.20895 8.44434 1.21779 7.75293 1.22364 7.5498C1.23126 6.92248 1.2866 6.29665 1.38917 5.67773C1.48461 5.09925 1.66787 4.53875 1.93263 4.01563C2.19339 3.49794 2.5362 3.02586 2.94777 2.61768C3.35887 2.20562 3.83207 1.8606 4.35011 1.59521C4.87085 1.33209 5.42818 1.14873 6.00343 1.05127C6.62362 0.949836 7.25055 0.894996 7.87894 0.88721L8.78126 0.875H111.55L112.463 0.8877C113.086 0.895099 113.707 0.94945 114.321 1.05029C114.902 1.14898 115.466 1.33362 115.992 1.59814C117.03 2.13299 117.874 2.97916 118.407 4.01807C118.668 4.53758 118.848 5.09351 118.942 5.66699C119.046 6.29099 119.104 6.92174 119.116 7.5542C119.119 7.8374 119.119 8.1416 119.119 8.44434C119.127 8.81934 119.127 9.17627 119.127 9.53613V30.4648C119.127 30.8281 119.127 31.1826 119.119 31.54C119.119 31.8652 119.119 32.1631 119.115 32.4697C119.104 33.0909 119.046 33.7104 118.944 34.3232C118.851 34.9043 118.669 35.4675 118.404 35.9932C118.141 36.5056 117.798 36.9733 117.389 37.3789C116.98 37.7927 116.508 38.1379 115.989 38.4014C115.464 38.6674 114.902 38.8527 114.321 38.9512C113.703 39.0522 113.078 39.1067 112.452 39.1143C112.159 39.1211 111.853 39.125 111.555 39.125L110.471 39.127L8.78077 39.125Z" fill="black"/>
<path d="M25.1048 20.3011C25.1156 19.4665 25.3373 18.6481 25.7493 17.9221C26.1613 17.1962 26.7503 16.5862 27.4614 16.1491C27.0096 15.5039 26.4137 14.973 25.7209 14.5984C25.028 14.2239 24.2574 14.016 23.4702 13.9914C21.791 13.8151 20.163 14.9962 19.3073 14.9962C18.435 14.9962 17.1175 14.0089 15.6988 14.0381C14.7811 14.0677 13.8868 14.3346 13.1029 14.8126C12.319 15.2907 11.6724 15.9637 11.2259 16.7659C9.29189 20.1144 10.7345 25.0354 12.5871 27.742C13.514 29.0674 14.5973 30.5478 16.0147 30.4953C17.4018 30.4378 17.9198 29.6108 19.5941 29.6108C21.2529 29.6108 21.7389 30.4953 23.1851 30.4619C24.6735 30.4378 25.6112 29.1307 26.5056 27.7928C27.1716 26.8484 27.6841 25.8047 28.024 24.7003C27.1593 24.3346 26.4214 23.7224 25.9023 22.9401C25.3832 22.1578 25.1058 21.24 25.1048 20.3011V20.3011Z" fill="white"/>
<path d="M22.3732 12.2113C23.1847 11.2371 23.5845 9.98494 23.4877 8.7207C22.2479 8.85092 21.1026 9.44348 20.2801 10.3803C19.878 10.838 19.57 11.3704 19.3737 11.9472C19.1775 12.524 19.0968 13.1337 19.1364 13.7417C19.7565 13.7481 20.37 13.6137 20.9307 13.3486C21.4914 13.0835 21.9846 12.6946 22.3732 12.2113Z" fill="white"/>
<path d="M42.6382 27.1397H37.9048L36.7681 30.4962H34.7632L39.2466 18.0782H41.3296L45.813 30.4962H43.7739L42.6382 27.1397ZM38.395 25.5909H42.147L40.2974 20.1436H40.2456L38.395 25.5909Z" fill="white"/>
<path d="M55.4956 25.9695C55.4956 28.7829 53.9897 30.5905 51.7173 30.5905C51.1416 30.6207 50.5691 30.4881 50.0653 30.2079C49.5615 29.9278 49.1468 29.5114 48.8687 29.0065H48.8257V33.4909H46.9673V21.4421H48.7661V22.948H48.8003C49.0912 22.4455 49.513 22.0313 50.0206 21.7495C50.5282 21.4676 51.1028 21.3287 51.6831 21.3474C53.9809 21.3474 55.4956 23.1638 55.4956 25.9695ZM53.5854 25.9695C53.5854 24.1365 52.6382 22.9314 51.1929 22.9314C49.7729 22.9314 48.8179 24.1618 48.8179 25.9695C48.8179 27.7937 49.7729 29.0154 51.1929 29.0154C52.6382 29.0154 53.5854 27.8191 53.5854 25.9695Z" fill="white"/>
<path d="M65.4604 25.9694C65.4604 28.7829 63.9546 30.5905 61.6821 30.5905C61.1065 30.6206 60.534 30.488 60.0302 30.2079C59.5264 29.9278 59.1117 29.5114 58.8335 29.0065H58.7905V33.4909H56.9321V21.4421H58.7309V22.948H58.7651C59.0561 22.4455 59.4778 22.0313 59.9854 21.7495C60.493 21.4676 61.0676 21.3287 61.6479 21.3474C63.9458 21.3474 65.4604 23.1638 65.4604 25.9694ZM63.5503 25.9694C63.5503 24.1364 62.603 22.9314 61.1577 22.9314C59.7378 22.9314 58.7827 24.1618 58.7827 25.9694C58.7827 27.7937 59.7378 29.0153 61.1577 29.0153C62.603 29.0153 63.5503 27.8191 63.5503 25.9694H63.5503Z" fill="white"/>
<path d="M72.0464 27.0362C72.1841 28.2676 73.3804 29.0762 75.0151 29.0762C76.5815 29.0762 77.7085 28.2676 77.7085 27.1572C77.7085 26.1934 77.0288 25.6162 75.4194 25.2207L73.8101 24.833C71.5298 24.2822 70.4712 23.2158 70.4712 21.4854C70.4712 19.3428 72.3384 17.8711 74.9897 17.8711C77.6137 17.8711 79.4126 19.3428 79.4731 21.4854H77.5971C77.4848 20.2461 76.4604 19.4981 74.9634 19.4981C73.4663 19.4981 72.4419 20.2549 72.4419 21.3565C72.4419 22.2344 73.0962 22.751 74.6968 23.1465L76.0649 23.4824C78.6128 24.0849 79.6714 25.1084 79.6714 26.9248C79.6714 29.248 77.8208 30.7031 74.8774 30.7031C72.1235 30.7031 70.2641 29.2822 70.144 27.0361L72.0464 27.0362Z" fill="white"/>
<path d="M83.6821 19.2999V21.4424H85.4038V22.9141H83.6821V27.9053C83.6821 28.6807 84.0269 29.0421 84.7837 29.0421C84.9881 29.0385 85.1921 29.0241 85.395 28.9991V30.4619C85.0547 30.5255 84.7089 30.5543 84.3628 30.5479C82.5298 30.5479 81.8149 29.8594 81.8149 28.1035V22.9141H80.4985V21.4424H81.8149V19.2999H83.6821Z" fill="white"/>
<path d="M86.4009 25.9698C86.4009 23.1212 88.0786 21.3311 90.6949 21.3311C93.3199 21.3311 94.9898 23.1211 94.9898 25.9698C94.9898 28.8262 93.3286 30.6085 90.6949 30.6085C88.062 30.6085 86.4009 28.8262 86.4009 25.9698ZM93.0962 25.9698C93.0962 24.0157 92.2007 22.8624 90.6948 22.8624C89.189 22.8624 88.2945 24.0245 88.2945 25.9698C88.2945 27.9317 89.189 29.0762 90.6948 29.0762C92.2007 29.0762 93.0962 27.9317 93.0962 25.9698H93.0962Z" fill="white"/>
<path d="M96.522 21.442H98.2944V22.983H98.3374C98.4574 22.5017 98.7393 22.0764 99.1359 21.7785C99.5325 21.4806 100.02 21.3284 100.515 21.3473C100.729 21.3465 100.943 21.3698 101.152 21.4166V23.1549C100.882 23.0723 100.599 23.0343 100.317 23.0426C100.047 23.0316 99.7778 23.0792 99.5279 23.1821C99.2781 23.285 99.0535 23.4408 98.8695 23.6386C98.6855 23.8365 98.5465 24.0719 98.4621 24.3286C98.3777 24.5852 98.3498 24.8571 98.3804 25.1256V30.4957H96.522L96.522 21.442Z" fill="white"/>
<path d="M109.72 27.837C109.47 29.4805 107.87 30.6085 105.822 30.6085C103.188 30.6085 101.553 28.8438 101.553 26.0128C101.553 23.1729 103.197 21.3311 105.744 21.3311C108.249 21.3311 109.824 23.0518 109.824 25.7969V26.4337H103.429V26.546C103.4 26.8792 103.441 27.2148 103.552 27.5307C103.662 27.8465 103.838 28.1353 104.068 28.3778C104.299 28.6204 104.578 28.8111 104.888 28.9374C105.197 29.0638 105.53 29.1227 105.865 29.1104C106.304 29.1516 106.745 29.0498 107.121 28.8204C107.498 28.591 107.791 28.246 107.956 27.837L109.72 27.837ZM103.438 25.1348H107.964C107.981 24.8352 107.936 24.5354 107.831 24.2542C107.726 23.973 107.565 23.7165 107.356 23.5007C107.148 23.2849 106.897 23.1146 106.619 23.0004C106.342 22.8862 106.044 22.8305 105.744 22.837C105.441 22.8352 105.141 22.8933 104.861 23.0081C104.581 23.1228 104.326 23.2919 104.112 23.5055C103.898 23.7191 103.728 23.9731 103.612 24.2528C103.496 24.5324 103.437 24.8322 103.438 25.1348V25.1348Z" fill="white"/>
<path d="M38.1621 8.73053C38.5517 8.70257 38.9427 8.76143 39.3068 8.90286C39.6709 9.04429 39.9991 9.26477 40.2677 9.5484C40.5363 9.83202 40.7386 10.1717 40.86 10.543C40.9814 10.9143 41.0188 11.3079 40.9697 11.6954C40.9697 13.6016 39.9395 14.6974 38.1621 14.6974H36.0068V8.73053H38.1621ZM36.9336 13.8535H38.0586C38.337 13.8702 38.6156 13.8245 38.8741 13.7199C39.1327 13.6153 39.3646 13.4543 39.5531 13.2488C39.7416 13.0432 39.8819 12.7982 39.9638 12.5316C40.0456 12.265 40.067 11.9834 40.0264 11.7075C40.0641 11.4327 40.0405 11.1529 39.9574 10.8883C39.8743 10.6236 39.7336 10.3806 39.5456 10.1767C39.3575 9.97273 39.1267 9.81292 38.8696 9.70868C38.6125 9.60445 38.3356 9.55836 38.0586 9.57374H36.9336V13.8535Z" fill="white"/>
<path d="M42.0166 12.4439C41.9883 12.1479 42.0221 11.8494 42.116 11.5673C42.2098 11.2852 42.3616 11.0259 42.5615 10.8059C42.7615 10.5859 43.0052 10.4102 43.277 10.2899C43.5489 10.1696 43.8429 10.1075 44.1401 10.1075C44.4374 10.1075 44.7314 10.1696 45.0032 10.2899C45.2751 10.4102 45.5188 10.5859 45.7187 10.8059C45.9187 11.0259 46.0704 11.2852 46.1643 11.5673C46.2581 11.8494 46.292 12.1479 46.2637 12.4439C46.2925 12.7401 46.2591 13.0391 46.1655 13.3216C46.0719 13.6041 45.9202 13.8639 45.7202 14.0843C45.5202 14.3048 45.2763 14.4809 45.0042 14.6014C44.7321 14.722 44.4377 14.7842 44.1401 14.7842C43.8425 14.7842 43.5482 14.722 43.276 14.6014C43.0039 14.4809 42.76 14.3048 42.56 14.0843C42.36 13.8639 42.2084 13.6041 42.1148 13.3216C42.0212 13.0391 41.9877 12.7401 42.0166 12.4439V12.4439ZM45.3496 12.4439C45.3496 11.4678 44.9111 10.897 44.1416 10.897C43.3691 10.897 42.9346 11.4678 42.9346 12.4439C42.9346 13.4278 43.3692 13.9942 44.1416 13.9942C44.9111 13.9942 45.3496 13.4238 45.3496 12.4439H45.3496Z" fill="white"/>
<path d="M51.9092 14.6973H50.9873L50.0566 11.3809H49.9863L49.0596 14.6973H48.1465L46.9053 10.1943H47.8066L48.6133 13.6303H48.6797L49.6055 10.1943H50.458L51.3838 13.6303H51.4541L52.2568 10.1943H53.1455L51.9092 14.6973Z" fill="white"/>
<path d="M54.1895 10.1939H55.0449V10.9092H55.1113C55.224 10.6523 55.414 10.4369 55.6549 10.2931C55.8957 10.1493 56.1755 10.0842 56.4551 10.107C56.6742 10.0905 56.8942 10.1235 57.0988 10.2036C57.3034 10.2837 57.4873 10.4088 57.637 10.5697C57.7867 10.7305 57.8983 10.923 57.9635 11.1328C58.0287 11.3426 58.0458 11.5644 58.0137 11.7818V14.6968H57.125V12.0049C57.125 11.2813 56.8106 10.9214 56.1533 10.9214C56.0046 10.9145 55.8561 10.9398 55.718 10.9957C55.58 11.0515 55.4556 11.1365 55.3535 11.2449C55.2514 11.3533 55.1739 11.4825 55.1263 11.6236C55.0788 11.7647 55.0624 11.9145 55.0781 12.0625V14.6968H54.1895L54.1895 10.1939Z" fill="white"/>
<path d="M59.4297 8.43652H60.3184V14.6973H59.4297V8.43652Z" fill="white"/>
<path d="M61.5537 12.4439C61.5254 12.1479 61.5593 11.8493 61.6532 11.5673C61.747 11.2852 61.8988 11.0258 62.0988 10.8058C62.2987 10.5858 62.5425 10.4101 62.8143 10.2898C63.0862 10.1695 63.3802 10.1074 63.6775 10.1074C63.9748 10.1074 64.2688 10.1695 64.5407 10.2898C64.8125 10.4101 65.0563 10.5858 65.2562 10.8058C65.4562 11.0258 65.608 11.2852 65.7018 11.5673C65.7957 11.8493 65.8296 12.1479 65.8013 12.4439C65.8301 12.7401 65.7966 13.0391 65.703 13.3216C65.6094 13.6041 65.4577 13.8639 65.2576 14.0843C65.0576 14.3047 64.8137 14.4809 64.5416 14.6014C64.2695 14.7219 63.9751 14.7842 63.6775 14.7842C63.3799 14.7842 63.0855 14.7219 62.8134 14.6014C62.5412 14.4809 62.2973 14.3047 62.0973 14.0843C61.8973 13.8639 61.7456 13.6041 61.652 13.3216C61.5584 13.0391 61.5249 12.7401 61.5537 12.4439V12.4439ZM64.8867 12.4439C64.8867 11.4678 64.4482 10.897 63.6787 10.897C62.9062 10.897 62.4717 11.4678 62.4717 12.4439C62.4717 13.4278 62.9063 13.9942 63.6787 13.9942C64.4482 13.9941 64.8867 13.4238 64.8867 12.4439H64.8867Z" fill="white"/>
<path d="M66.7368 13.4239C66.7368 12.6133 67.3403 12.146 68.4116 12.0796L69.6313 12.0093V11.6206C69.6313 11.145 69.3169 10.8765 68.7095 10.8765C68.2134 10.8765 67.8696 11.0586 67.771 11.377H66.9106C67.0015 10.6035 67.729 10.1075 68.7505 10.1075C69.8794 10.1075 70.5161 10.6695 70.5161 11.6206V14.6973H69.6606V14.0645H69.5903C69.4476 14.2915 69.2472 14.4765 69.0096 14.6007C68.772 14.7249 68.5056 14.7839 68.2378 14.7715C68.0488 14.7911 67.8577 14.771 67.6769 14.7123C67.4962 14.6536 67.3297 14.5577 67.1883 14.4307C67.0469 14.3037 66.9337 14.1485 66.8559 13.9751C66.7781 13.8017 66.7376 13.6139 66.7368 13.4239V13.4239ZM69.6313 13.0391V12.6626L68.5317 12.7329C67.9116 12.7744 67.6304 12.9854 67.6304 13.3823C67.6304 13.7876 67.9819 14.0235 68.4654 14.0235C68.607 14.0378 68.7501 14.0235 68.8861 13.9814C69.0221 13.9393 69.1482 13.8703 69.257 13.7784C69.3658 13.6866 69.455 13.5738 69.5193 13.4468C69.5836 13.3198 69.6217 13.1811 69.6313 13.0391V13.0391Z" fill="white"/>
<path d="M71.6841 12.4439C71.6841 11.021 72.4155 10.1196 73.5532 10.1196C73.8346 10.1067 74.1139 10.1741 74.3585 10.314C74.603 10.4539 74.8026 10.6605 74.9341 10.9096H75.0005V8.43652H75.8892V14.6973H75.0376V13.9858H74.9673C74.8257 14.2333 74.6191 14.4374 74.3698 14.5758C74.1206 14.7143 73.8382 14.782 73.5532 14.7715C72.4077 14.7715 71.6841 13.8701 71.6841 12.4439ZM72.6021 12.4439C72.6021 13.3989 73.0523 13.9737 73.8052 13.9737C74.5542 13.9737 75.0171 13.3907 75.0171 12.4478C75.0171 11.5093 74.5494 10.918 73.8052 10.918C73.0571 10.918 72.6021 11.4966 72.6021 12.4439H72.6021Z" fill="white"/>
<path d="M79.5659 12.4439C79.5376 12.1479 79.5715 11.8494 79.6653 11.5673C79.7591 11.2852 79.9109 11.0259 80.1108 10.8059C80.3108 10.5859 80.5545 10.4102 80.8263 10.2899C81.0982 10.1696 81.3922 10.1075 81.6895 10.1075C81.9867 10.1075 82.2807 10.1696 82.5526 10.2899C82.8244 10.4102 83.0681 10.5859 83.2681 10.8059C83.468 11.0259 83.6198 11.2852 83.7136 11.5673C83.8074 11.8494 83.8413 12.1479 83.813 12.4439C83.8418 12.7401 83.8084 13.0391 83.7148 13.3216C83.6212 13.6041 83.4695 13.8639 83.2695 14.0843C83.0696 14.3048 82.8257 14.4809 82.5535 14.6014C82.2814 14.722 81.9871 14.7842 81.6895 14.7842C81.3918 14.7842 81.0975 14.722 80.8254 14.6014C80.5533 14.4809 80.3094 14.3048 80.1094 14.0843C79.9094 13.8639 79.7577 13.6041 79.6641 13.3216C79.5705 13.0391 79.5371 12.7401 79.5659 12.4439V12.4439ZM82.8989 12.4439C82.8989 11.4678 82.4604 10.897 81.6909 10.897C80.9185 10.897 80.4839 11.4678 80.4839 12.4439C80.4839 13.4278 80.9185 13.9942 81.6909 13.9942C82.4605 13.9942 82.8989 13.4238 82.8989 12.4439Z" fill="white"/>
<path d="M85.0054 10.1939H85.8608V10.9092H85.9273C86.0399 10.6523 86.2299 10.4369 86.4708 10.2931C86.7117 10.1493 86.9914 10.0842 87.271 10.107C87.4901 10.0905 87.7101 10.1235 87.9147 10.2036C88.1193 10.2837 88.3033 10.4088 88.4529 10.5697C88.6026 10.7305 88.7142 10.923 88.7794 11.1328C88.8446 11.3426 88.8617 11.5644 88.8296 11.7818V14.6968H87.9409V12.0049C87.9409 11.2813 87.6265 10.9214 86.9692 10.9214C86.8205 10.9145 86.672 10.9398 86.5339 10.9957C86.3959 11.0515 86.2715 11.1365 86.1694 11.2449C86.0673 11.3533 85.9898 11.4825 85.9423 11.6236C85.8947 11.7647 85.8783 11.9145 85.894 12.0625V14.6968H85.0054V10.1939Z" fill="white"/>
<path d="M93.8511 9.07324V10.2148H94.8267V10.9634H93.8511V13.2788C93.8511 13.7505 94.0454 13.957 94.4878 13.957C94.601 13.9567 94.7142 13.9498 94.8267 13.9365V14.6768C94.6671 14.7053 94.5054 14.7205 94.3433 14.7222C93.355 14.7222 92.9614 14.3745 92.9614 13.5063V10.9633H92.2466V10.2148H92.9614V9.07324H93.8511Z" fill="white"/>
<path d="M96.0405 8.43652H96.9214V10.918H96.9917C97.1098 10.6587 97.305 10.4421 97.5507 10.2977C97.7964 10.1534 98.0807 10.0883 98.3647 10.1113C98.5827 10.0995 98.8005 10.1359 99.0028 10.2179C99.2051 10.2999 99.3868 10.4256 99.5349 10.586C99.683 10.7463 99.7939 10.9373 99.8597 11.1455C99.9255 11.3536 99.9445 11.5737 99.9155 11.79V14.6973H99.0259V12.0093C99.0259 11.29 98.6909 10.9258 98.063 10.9258C97.9103 10.9132 97.7567 10.9342 97.6129 10.9873C97.4691 11.0404 97.3387 11.1242 97.2307 11.2329C97.1227 11.3417 97.0397 11.4727 96.9877 11.6168C96.9356 11.761 96.9157 11.9147 96.9292 12.0674V14.6973H96.0406L96.0405 8.43652Z" fill="white"/>
<path d="M105.097 13.4815C104.976 13.893 104.715 14.249 104.358 14.4871C104.001 14.7253 103.572 14.8304 103.146 14.7842C102.849 14.792 102.555 14.7352 102.282 14.6177C102.01 14.5001 101.766 14.3247 101.568 14.1036C101.37 13.8824 101.223 13.6209 101.136 13.3371C101.049 13.0532 101.025 12.754 101.066 12.46C101.026 12.1651 101.051 11.8652 101.137 11.5805C101.224 11.2958 101.37 11.033 101.567 10.81C101.764 10.5869 102.007 10.4087 102.278 10.2875C102.55 10.1663 102.845 10.1049 103.142 10.1074C104.395 10.1074 105.151 10.9634 105.151 12.3774V12.6875H101.971V12.7373C101.957 12.9026 101.978 13.0689 102.032 13.2257C102.086 13.3824 102.173 13.5261 102.285 13.6476C102.398 13.769 102.535 13.8655 102.688 13.9309C102.84 13.9963 103.005 14.0292 103.17 14.0273C103.383 14.0528 103.598 14.0146 103.789 13.9174C103.98 13.8202 104.137 13.6684 104.242 13.4814L105.097 13.4815ZM101.971 12.0303H104.246C104.257 11.8792 104.236 11.7274 104.185 11.5846C104.134 11.4419 104.054 11.3114 103.95 11.2016C103.845 11.0917 103.719 11.0049 103.579 10.9467C103.439 10.8886 103.289 10.8603 103.137 10.8638C102.983 10.8619 102.831 10.8907 102.689 10.9487C102.546 11.0066 102.417 11.0925 102.308 11.2012C102.2 11.3099 102.114 11.4393 102.056 11.5817C101.998 11.724 101.969 11.8766 101.971 12.0303H101.971Z" fill="white"/>
</svg>
