<svg width="24" height="30" viewBox="0 0 24 30" fill="none" xmlns="http://www.w3.org/2000/svg">
<path d="M13.4 4.6499V0.399902H0V29.5999H13.4V25.3499C10.655 25.3499 8.0224 24.2594 6.08144 22.3184C4.14044 20.3774 3.05 17.7449 3.05 14.9999C3.05 12.2549 4.14044 9.62231 6.08144 7.68135C8.0224 5.74035 10.655 4.6499 13.4 4.6499Z" fill="#475569"/>
<path d="M13.4 4.6499V25.3499C16.145 25.3499 18.7776 24.2594 20.7186 22.3184C22.6596 20.3774 23.75 17.7449 23.75 14.9999C23.75 12.2549 22.6596 9.62231 20.7186 7.68135C18.7776 5.74035 16.145 4.6499 13.4 4.6499Z" fill="#475569"/>
</svg>
