<svg width="24" height="24" viewBox="0 0 24 24" fill="none" xmlns="http://www.w3.org/2000/svg">
<path d="M13.4 11.4V6.40002C13.4 6.13481 13.2947 5.88045 13.1071 5.69292C12.9196 5.50538 12.6652 5.40002 12.4 5.40002C12.1348 5.40002 11.8805 5.50538 11.6929 5.69292C11.5054 5.88045 11.4 6.13481 11.4 6.40002V11.4H6.40002C6.13481 11.4 5.88045 11.5054 5.69292 11.6929C5.50538 11.8805 5.40002 12.1348 5.40002 12.4C5.40002 12.6652 5.50538 12.9196 5.69292 13.1071C5.88045 13.2947 6.13481 13.4 6.40002 13.4H11.4V18.4C11.4 18.6652 11.5054 18.9196 11.6929 19.1071C11.8805 19.2947 12.1348 19.4 12.4 19.4C12.6652 19.4 12.9196 19.2947 13.1071 19.1071C13.2947 18.9196 13.4 18.6652 13.4 18.4V13.4H18.4C18.6652 13.4 18.9196 13.2947 19.1071 13.1071C19.2947 12.9196 19.4 12.6652 19.4 12.4C19.4 12.1348 19.2947 11.8805 19.1071 11.6929C18.9196 11.5054 18.6652 11.4 18.4 11.4H13.4Z" fill="white"/>
</svg>
