<svg width="16" height="16" viewBox="0 0 16 16" fill="none" xmlns="http://www.w3.org/2000/svg">
<path d="M8 13.3333C9.41448 13.3333 10.771 12.7714 11.7712 11.7712C12.7714 10.7711 13.3333 9.4145 13.3333 8.00001C13.3333 6.58552 12.7714 5.22897 11.7712 4.22877C10.771 3.22858 9.41448 2.66668 8 2.66668C6.58551 2.66668 5.22895 3.22858 4.22876 4.22877C3.22856 5.22897 2.66666 6.58552 2.66666 8.00001C2.66666 9.4145 3.22856 10.7711 4.22876 11.7712C5.22895 12.7714 6.58551 13.3333 8 13.3333V13.3333ZM8 14.6667C4.318 14.6667 1.33333 11.682 1.33333 8.00001C1.33333 4.31801 4.318 1.33334 8 1.33334C11.682 1.33334 14.6667 4.31801 14.6667 8.00001C14.6667 11.682 11.682 14.6667 8 14.6667Z" fill="#C084FC"/>
</svg>
