<svg width="65" height="64" viewBox="0 0 65 64" fill="none" xmlns="http://www.w3.org/2000/svg">
<path d="M35.3333 32.0001H40.6666C41.3739 32.0001 42.0522 32.2811 42.5523 32.7812C43.0524 33.2813 43.3333 33.9595 43.3333 34.6668C43.3333 35.374 43.0524 36.0523 42.5523 36.5524C42.0522 37.0525 41.3739 37.3335 40.6666 37.3335H32.6666C31.9594 37.3335 31.2811 37.0525 30.781 36.5524C30.2809 36.0523 30 35.374 30 34.6668V21.3335C30 20.6262 30.2809 19.9479 30.781 19.4478C31.2811 18.9477 31.9594 18.6668 32.6666 18.6668C33.3739 18.6668 34.0522 18.9477 34.5523 19.4478C35.0524 19.9479 35.3333 20.6262 35.3333 21.3335V32.0001ZM55.68 27.8348C56.7396 31.4152 56.9492 35.1934 56.2921 38.869C55.635 42.5446 54.1294 46.0162 51.895 49.0077C49.6606 51.9992 46.759 54.4281 43.4209 56.1012C40.0829 57.7743 36.4005 58.6456 32.6666 58.6456C28.9328 58.6456 25.2504 57.7743 21.9124 56.1012C18.5743 54.4281 15.6727 51.9992 13.4383 49.0077C11.2039 46.0162 9.69825 42.5446 9.04118 38.869C8.38411 35.1934 8.59371 31.4152 9.65331 27.8348C8.3997 26.5117 7.43068 24.9455 6.80611 23.2332C6.18155 21.5208 5.9147 19.6986 6.02205 17.8791C6.1294 16.0596 6.60867 14.2814 7.43026 12.6543C8.25185 11.0273 9.39831 9.58601 10.7988 8.41947C12.1993 7.25293 13.8241 6.38592 15.5729 5.87201C17.3216 5.3581 19.1572 5.20819 20.9661 5.43154C22.7751 5.6549 24.519 6.24678 26.0903 7.17062C27.6615 8.09445 29.0266 9.33063 30.1013 10.8028C31.8067 10.6215 33.5266 10.6215 35.232 10.8028C36.3067 9.33063 37.6718 8.09445 39.243 7.17062C40.8143 6.24678 42.5582 5.6549 44.3672 5.43154C46.1761 5.20819 48.0117 5.3581 49.7604 5.87201C51.5092 6.38592 53.134 7.25293 54.5345 8.41947C55.935 9.58601 57.0814 11.0273 57.903 12.6543C58.7246 14.2814 59.2039 16.0596 59.3112 17.8791C59.4186 19.6986 59.1517 21.5208 58.5272 23.2332C57.9026 24.9455 56.9336 26.5117 55.68 27.8348V27.8348ZM53.1786 22.2001C53.973 20.5899 54.2025 18.7593 53.8304 17.0028C53.4582 15.2463 52.506 13.666 51.1269 12.5163C49.7478 11.3665 48.0221 10.7141 46.2273 10.6641C44.4325 10.614 42.673 11.1691 41.232 12.2401C46.2063 14.1472 50.4078 17.65 53.1786 22.2001V22.2001ZM24.0986 12.2401C22.6576 11.1691 20.8981 10.614 19.1033 10.6641C17.3085 10.7141 15.5828 11.3665 14.2037 12.5163C12.8246 13.666 11.8724 15.2463 11.5003 17.0028C11.1281 18.7593 11.3577 20.5899 12.152 22.2001C14.9228 17.65 19.1243 14.1472 24.0986 12.2401V12.2401ZM32.6666 53.3335C35.118 53.3335 37.5453 52.8506 39.8101 51.9125C42.0748 50.9745 44.1326 49.5995 45.866 47.8661C47.5993 46.1328 48.9743 44.075 49.9124 41.8102C50.8505 39.5455 51.3333 37.1181 51.3333 34.6668C51.3333 32.2154 50.8505 29.7881 49.9124 27.5234C48.9743 25.2586 47.5993 23.2008 45.866 21.4675C44.1326 19.7341 42.0748 18.3591 39.8101 17.421C37.5453 16.4829 35.118 16.0001 32.6666 16.0001C27.7159 16.0001 22.968 17.9668 19.4673 21.4675C15.9666 24.9681 14 29.7161 14 34.6668C14 39.6175 15.9666 44.3654 19.4673 47.8661C22.968 51.3668 27.7159 53.3335 32.6666 53.3335V53.3335Z" fill="#0F172A"/>
</svg>
