<svg width="24" height="25" viewBox="0 0 24 25" fill="none" xmlns="http://www.w3.org/2000/svg">
<path d="M13.314 12.571L8.364 7.62098C8.18184 7.43238 8.08105 7.17978 8.08333 6.91758C8.08561 6.65538 8.19078 6.40457 8.37618 6.21916C8.56159 6.03375 8.8124 5.92859 9.0746 5.92631C9.3368 5.92403 9.5894 6.02482 9.778 6.20698L15.435 11.864C15.6225 12.0515 15.7278 12.3058 15.7278 12.571C15.7278 12.8361 15.6225 13.0905 15.435 13.278L9.778 18.935C9.5894 19.1171 9.3368 19.2179 9.0746 19.2157C8.8124 19.2134 8.56159 19.1082 8.37618 18.9228C8.19078 18.7374 8.08561 18.4866 8.08333 18.2244C8.08105 17.9622 8.18184 17.7096 8.364 17.521L13.314 12.571V12.571Z" fill="#475569"/>
</svg>
