<svg width="24" height="24" viewBox="0 0 24 24" fill="none" xmlns="http://www.w3.org/2000/svg">
<path d="M11.9098 15.016L11.5858 18.103C11.572 18.2336 11.5326 18.3602 11.4699 18.4756C11.4072 18.591 11.3223 18.6929 11.2202 18.7755C11.1181 18.8581 11.0008 18.9197 10.8748 18.957C10.7489 18.9942 10.6169 19.0063 10.4863 18.9925C10.3557 18.9787 10.2291 18.9393 10.1137 18.8766C9.9983 18.8139 9.8964 18.7291 9.81381 18.627C9.73121 18.5249 9.66953 18.4075 9.63229 18.2816C9.59505 18.1556 9.58298 18.0236 9.59677 17.893L10.3198 11.01H7.00977C6.74416 11.01 6.48942 10.9045 6.3016 10.7167C6.11379 10.5288 6.00827 10.2741 6.00827 10.0085C6.00827 9.74289 6.11379 9.48815 6.3016 9.30033C6.48942 9.11251 6.74416 9.007 7.00977 9.007H17.0098C17.2754 9.007 17.5301 9.11251 17.7179 9.30033C17.9058 9.48815 18.0113 9.74289 18.0113 10.0085C18.0113 10.2741 17.9058 10.5288 17.7179 10.7167C17.5301 10.9045 17.2754 11.01 17.0098 11.01H13.6998L14.4228 17.895C14.4411 18.0279 14.4325 18.1632 14.3976 18.2927C14.3626 18.4223 14.3019 18.5435 14.2192 18.6491C14.1364 18.7547 14.0333 18.8427 13.9159 18.9076C13.7984 18.9726 13.6692 19.0133 13.5357 19.0273C13.4023 19.0414 13.2674 19.0284 13.139 18.9892C13.0107 18.9501 12.8915 18.8855 12.7886 18.7994C12.6857 18.7132 12.6012 18.6073 12.5401 18.4878C12.4789 18.3684 12.4424 18.2378 12.4328 18.104L12.1098 15.016H11.9098V15.016ZM12.0098 9.006C10.9048 9.006 10.0098 8.109 10.0098 7.003C10.0098 5.897 10.9048 5 12.0098 5C13.1148 5 14.0098 5.897 14.0098 7.003C14.01 7.53379 13.7995 8.04296 13.4245 8.41857C13.0494 8.79417 12.5406 9.00547 12.0098 9.006V9.006Z" fill="#E2E8F0"/>
<rect x="1" y="1" width="22" height="22" rx="11" stroke="#E2E8F0" stroke-width="2"/>
</svg>
