<svg width="17" height="16" viewBox="0 0 17 16" fill="none" xmlns="http://www.w3.org/2000/svg">
<path d="M8.66667 13.3335C10.0812 13.3335 11.4377 12.7716 12.4379 11.7714C13.4381 10.7712 14 9.41465 14 8.00016C14 6.58567 13.4381 5.22912 12.4379 4.22893C11.4377 3.22873 10.0812 2.66683 8.66667 2.66683C7.25218 2.66683 5.89562 3.22873 4.89543 4.22893C3.89524 5.22912 3.33333 6.58567 3.33333 8.00016C3.33333 9.41465 3.89524 10.7712 4.89543 11.7714C5.89562 12.7716 7.25218 13.3335 8.66667 13.3335V13.3335ZM8.66667 14.6668C4.98467 14.6668 2 11.6822 2 8.00016C2 4.31816 4.98467 1.3335 8.66667 1.3335C12.3487 1.3335 15.3333 4.31816 15.3333 8.00016C15.3333 11.6822 12.3487 14.6668 8.66667 14.6668Z" fill="#C084FC"/>
</svg>
