<svg width="25" height="24" viewBox="0 0 25 24" fill="none" xmlns="http://www.w3.org/2000/svg">
<path d="M10.6666 20C10.1362 20 9.6275 19.7893 9.25243 19.4142C8.87736 19.0391 8.66664 18.5304 8.66664 18C8.66664 17.4696 8.87736 16.9609 9.25243 16.5858C9.6275 16.2107 10.1362 16 10.6666 16C11.1971 16 11.7058 16.2107 12.0809 16.5858C12.4559 16.9609 12.6666 17.4696 12.6666 18C12.6666 18.5304 12.4559 19.0391 12.0809 19.4142C11.7058 19.7893 11.1971 20 10.6666 20ZM17.6666 20C17.1362 20 16.6275 19.7893 16.2524 19.4142C15.8774 19.0391 15.6666 18.5304 15.6666 18C15.6666 17.4696 15.8774 16.9609 16.2524 16.5858C16.6275 16.2107 17.1362 16 17.6666 16C18.1971 16 18.7058 16.2107 19.0809 16.5858C19.4559 16.9609 19.6666 17.4696 19.6666 18C19.6666 18.5304 19.4559 19.0391 19.0809 19.4142C18.7058 19.7893 18.1971 20 17.6666 20ZM4.62864 5.923C4.379 5.91495 4.14228 5.81012 3.96854 5.63068C3.7948 5.45125 3.69765 5.21127 3.69765 4.9615C3.69765 4.71173 3.7948 4.47175 3.96854 4.29232C4.14228 4.11288 4.379 4.00805 4.62864 4H5.77964C6.68164 4 7.46164 4.626 7.65764 5.506L8.91064 11.148C9.10664 12.028 9.88664 12.654 10.7886 12.654H18.3006L19.7426 6.884H10.3976C10.1504 6.87272 9.91693 6.76654 9.74593 6.58755C9.57492 6.40857 9.47949 6.17055 9.47949 5.923C9.47949 5.67545 9.57492 5.43743 9.74593 5.25845C9.91693 5.07946 10.1504 4.97328 10.3976 4.962H19.7426C20.035 4.96191 20.3235 5.02848 20.5862 5.15663C20.849 5.28479 21.079 5.47116 21.2589 5.70158C21.4388 5.93201 21.5638 6.20041 21.6244 6.4864C21.685 6.77238 21.6796 7.06842 21.6086 7.352L20.1666 13.12C20.0627 13.5362 19.8226 13.9057 19.4844 14.1697C19.1463 14.4337 18.7296 14.5771 18.3006 14.577H10.7886C9.91344 14.5771 9.06437 14.2787 8.38166 13.7311C7.69895 13.1835 7.22343 12.4194 7.03364 11.565L5.77964 5.923H4.62864Z" fill="white"/>
</svg>
