<svg width="17" height="16" viewBox="0 0 17 16" fill="none" xmlns="http://www.w3.org/2000/svg">
<path d="M8.20002 13.3333C9.61451 13.3333 10.9711 12.7714 11.9713 11.7712C12.9715 10.7711 13.5334 9.4145 13.5334 8.00001C13.5334 6.58552 12.9715 5.22897 11.9713 4.22877C10.9711 3.22858 9.61451 2.66668 8.20002 2.66668C6.78553 2.66668 5.42898 3.22858 4.42879 4.22877C3.42859 5.22897 2.86669 6.58552 2.86669 8.00001C2.86669 9.4145 3.42859 10.7711 4.42879 11.7712C5.42898 12.7714 6.78553 13.3333 8.20002 13.3333V13.3333ZM8.20002 14.6667C4.51802 14.6667 1.53336 11.682 1.53336 8.00001C1.53336 4.31801 4.51802 1.33334 8.20002 1.33334C11.882 1.33334 14.8667 4.31801 14.8667 8.00001C14.8667 11.682 11.882 14.6667 8.20002 14.6667Z" fill="#C084FC"/>
</svg>
