<svg width="25" height="24" viewBox="0 0 25 24" fill="none" xmlns="http://www.w3.org/2000/svg">
<path d="M15.0714 7.97181L6.03338 17.0098L5.44238 19.0258L7.41738 18.4548L16.4854 9.38681L15.0714 7.97181ZM16.6134 6.42981L18.0274 7.84381L19.3454 6.52581C19.4391 6.43205 19.4918 6.30489 19.4918 6.17231C19.4918 6.03973 19.4391 5.91257 19.3454 5.81881L18.6374 5.11181C18.5436 5.01807 18.4165 4.96542 18.2839 4.96542C18.1513 4.96542 18.0241 5.01807 17.9304 5.11181L16.6144 6.42981H16.6134ZM20.0524 3.69781L20.7594 4.40481C21.2281 4.87363 21.4913 5.5094 21.4913 6.17231C21.4913 6.83522 21.2281 7.47099 20.7594 7.93981L8.46738 20.2328L4.24738 21.4528C4.07537 21.5024 3.8932 21.5049 3.71988 21.4601C3.54657 21.4152 3.38847 21.3247 3.26209 21.1979C3.13571 21.0711 3.04568 20.9127 3.0014 20.7393C2.95713 20.5658 2.96023 20.3837 3.01038 20.2118L4.25838 15.9568L16.5184 3.69681C16.9872 3.22813 17.623 2.96484 18.2859 2.96484C18.9488 2.96484 19.5846 3.22813 20.0534 3.69681L20.0524 3.69781Z" fill="#475569"/>
</svg>
