<svg width="24" height="25" viewBox="0 0 24 25" fill="none" xmlns="http://www.w3.org/2000/svg">
<path d="M13.4 11.5999V6.59985C13.4 6.33464 13.2947 6.08028 13.1071 5.89275C12.9196 5.70521 12.6652 5.59985 12.4 5.59985C12.1348 5.59985 11.8805 5.70521 11.6929 5.89275C11.5054 6.08028 11.4 6.33464 11.4 6.59985V11.5999H6.40002C6.13481 11.5999 5.88045 11.7052 5.69292 11.8927C5.50538 12.0803 5.40002 12.3346 5.40002 12.5999C5.40002 12.8651 5.50538 13.1194 5.69292 13.307C5.88045 13.4945 6.13481 13.5999 6.40002 13.5999H11.4V18.5999C11.4 18.8651 11.5054 19.1194 11.6929 19.307C11.8805 19.4945 12.1348 19.5999 12.4 19.5999C12.6652 19.5999 12.9196 19.4945 13.1071 19.307C13.2947 19.1194 13.4 18.8651 13.4 18.5999V13.5999H18.4C18.6652 13.5999 18.9196 13.4945 19.1071 13.307C19.2947 13.1194 19.4 12.8651 19.4 12.5999C19.4 12.3346 19.2947 12.0803 19.1071 11.8927C18.9196 11.7052 18.6652 11.5999 18.4 11.5999H13.4Z" fill="white"/>
</svg>
