<svg width="16" height="16" viewBox="0 0 16 16" fill="none" xmlns="http://www.w3.org/2000/svg">
<path d="M7.99996 13.3335C9.41445 13.3335 10.771 12.7716 11.7712 11.7714C12.7714 10.7712 13.3333 9.41465 13.3333 8.00016C13.3333 6.58567 12.7714 5.22912 11.7712 4.22893C10.771 3.22873 9.41445 2.66683 7.99996 2.66683C6.58548 2.66683 5.22892 3.22873 4.22873 4.22893C3.22853 5.22912 2.66663 6.58567 2.66663 8.00016C2.66663 9.41465 3.22853 10.7712 4.22873 11.7714C5.22892 12.7716 6.58548 13.3335 7.99996 13.3335V13.3335ZM7.99996 14.6668C4.31796 14.6668 1.3333 11.6822 1.3333 8.00016C1.3333 4.31816 4.31796 1.3335 7.99996 1.3335C11.682 1.3335 14.6666 4.31816 14.6666 8.00016C14.6666 11.6822 11.682 14.6668 7.99996 14.6668Z" fill="#22C55E"/>
</svg>
