<svg width="25" height="24" viewBox="0 0 25 24" fill="none" xmlns="http://www.w3.org/2000/svg">
<path d="M16.4193 10.6569L12.4693 6.70692C12.2872 6.51832 12.1864 6.26571 12.1886 6.00352C12.1909 5.74132 12.2961 5.49051 12.4815 5.3051C12.6669 5.11969 12.9177 5.01452 13.1799 5.01224C13.4421 5.00997 13.6947 5.11076 13.8833 5.29292L19.5403 10.9499C19.6335 11.0426 19.7074 11.1527 19.7579 11.2741C19.8084 11.3954 19.8343 11.5255 19.8343 11.6569C19.8343 11.7883 19.8084 11.9184 19.7579 12.0398C19.7074 12.1611 19.6335 12.2713 19.5403 12.3639L13.8833 18.0209C13.7911 18.1164 13.6807 18.1926 13.5587 18.245C13.4367 18.2974 13.3055 18.325 13.1727 18.3262C13.0399 18.3273 12.9083 18.302 12.7854 18.2517C12.6625 18.2015 12.5508 18.1272 12.4569 18.0333C12.363 17.9394 12.2888 17.8278 12.2385 17.7049C12.1882 17.582 12.1629 17.4503 12.1641 17.3175C12.1652 17.1847 12.1928 17.0535 12.2452 16.9315C12.2976 16.8095 12.3738 16.6992 12.4693 16.6069L16.4193 12.6569H6.83331C6.5681 12.6569 6.31374 12.5516 6.12621 12.364C5.93867 12.1765 5.83331 11.9221 5.83331 11.6569C5.83331 11.3917 5.93867 11.1373 6.12621 10.9498C6.31374 10.7623 6.5681 10.6569 6.83331 10.6569H16.4193V10.6569Z" fill="#2563EB"/>
</svg>
