<svg width="25" height="24" viewBox="0 0 25 24" fill="none" xmlns="http://www.w3.org/2000/svg">
<path d="M16.2526 10.6569L12.3026 6.70692C12.1205 6.51832 12.0197 6.26571 12.022 6.00352C12.0242 5.74132 12.1294 5.49051 12.3148 5.3051C12.5002 5.11969 12.751 5.01452 13.0132 5.01224C13.2754 5.00997 13.528 5.11076 13.7166 5.29292L19.3736 10.9499C19.4668 11.0426 19.5408 11.1527 19.5912 11.2741C19.6417 11.3954 19.6677 11.5255 19.6677 11.6569C19.6677 11.7883 19.6417 11.9184 19.5912 12.0398C19.5408 12.1611 19.4668 12.2713 19.3736 12.3639L13.7166 18.0209C13.6244 18.1164 13.514 18.1926 13.392 18.245C13.27 18.2974 13.1388 18.325 13.006 18.3262C12.8733 18.3273 12.7416 18.302 12.6187 18.2517C12.4958 18.2015 12.3841 18.1272 12.2902 18.0333C12.1964 17.9394 12.1221 17.8278 12.0718 17.7049C12.0215 17.582 11.9962 17.4503 11.9974 17.3175C11.9985 17.1847 12.0261 17.0535 12.0785 16.9315C12.1309 16.8095 12.2071 16.6992 12.3026 16.6069L16.2526 12.6569H6.66664C6.40142 12.6569 6.14707 12.5516 5.95953 12.364C5.772 12.1765 5.66664 11.9221 5.66664 11.6569C5.66664 11.3917 5.772 11.1373 5.95953 10.9498C6.14707 10.7623 6.40142 10.6569 6.66664 10.6569H16.2526V10.6569Z" fill="#2563EB"/>
</svg>
