<svg width="25" height="24" viewBox="0 0 25 24" fill="none" xmlns="http://www.w3.org/2000/svg">
<path d="M16.2527 10.6569L12.3027 6.70692C12.1205 6.51832 12.0197 6.26571 12.022 6.00352C12.0243 5.74132 12.1295 5.49051 12.3149 5.3051C12.5003 5.11969 12.7511 5.01452 13.0133 5.01224C13.2755 5.00997 13.5281 5.11076 13.7167 5.29292L19.3737 10.9499C19.4669 11.0426 19.5408 11.1527 19.5913 11.2741C19.6417 11.3954 19.6677 11.5255 19.6677 11.6569C19.6677 11.7883 19.6417 11.9184 19.5913 12.0398C19.5408 12.1611 19.4669 12.2713 19.3737 12.3639L13.7167 18.0209C13.6244 18.1164 13.5141 18.1926 13.3921 18.245C13.2701 18.2974 13.1389 18.325 13.0061 18.3262C12.8733 18.3273 12.7416 18.302 12.6187 18.2517C12.4958 18.2015 12.3842 18.1272 12.2903 18.0333C12.1964 17.9394 12.1221 17.8278 12.0719 17.7049C12.0216 17.582 11.9963 17.4503 11.9974 17.3175C11.9986 17.1847 12.0262 17.0535 12.0786 16.9315C12.131 16.8095 12.2072 16.6992 12.3027 16.6069L16.2527 12.6569H6.66669C6.40147 12.6569 6.14712 12.5516 5.95958 12.364C5.77204 12.1765 5.66669 11.9221 5.66669 11.6569C5.66669 11.3917 5.77204 11.1373 5.95958 10.9498C6.14712 10.7623 6.40147 10.6569 6.66669 10.6569H16.2527V10.6569Z" fill="white"/>
</svg>
