<svg width="24" height="24" viewBox="0 0 24 24" fill="none" xmlns="http://www.w3.org/2000/svg">
<path d="M13.4 11.3999V6.3999C13.4 6.13469 13.2947 5.88033 13.1071 5.6928C12.9196 5.50526 12.6652 5.3999 12.4 5.3999C12.1348 5.3999 11.8805 5.50526 11.6929 5.6928C11.5054 5.88033 11.4 6.13469 11.4 6.3999V11.3999H6.40002C6.13481 11.3999 5.88045 11.5053 5.69292 11.6928C5.50538 11.8803 5.40002 12.1347 5.40002 12.3999C5.40002 12.6651 5.50538 12.9195 5.69292 13.107C5.88045 13.2945 6.13481 13.3999 6.40002 13.3999H11.4V18.3999C11.4 18.6651 11.5054 18.9195 11.6929 19.107C11.8805 19.2945 12.1348 19.3999 12.4 19.3999C12.6652 19.3999 12.9196 19.2945 13.1071 19.107C13.2947 18.9195 13.4 18.6651 13.4 18.3999V13.3999H18.4C18.6652 13.3999 18.9196 13.2945 19.1071 13.107C19.2947 12.9195 19.4 12.6651 19.4 12.3999C19.4 12.1347 19.2947 11.8803 19.1071 11.6928C18.9196 11.5053 18.6652 11.3999 18.4 11.3999H13.4Z" fill="#2563EB"/>
</svg>
