<svg width="25" height="24" viewBox="0 0 25 24" fill="none" xmlns="http://www.w3.org/2000/svg">
<path d="M14.0667 11.3999V6.3999C14.0667 6.13469 13.9613 5.88033 13.7738 5.6928C13.5863 5.50526 13.3319 5.3999 13.0667 5.3999C12.8015 5.3999 12.5471 5.50526 12.3596 5.6928C12.172 5.88033 12.0667 6.13469 12.0667 6.3999V11.3999H7.06668C6.80146 11.3999 6.54711 11.5053 6.35957 11.6928C6.17204 11.8803 6.06668 12.1347 6.06668 12.3999C6.06668 12.6651 6.17204 12.9195 6.35957 13.107C6.54711 13.2945 6.80146 13.3999 7.06668 13.3999H12.0667V18.3999C12.0667 18.6651 12.172 18.9195 12.3596 19.107C12.5471 19.2945 12.8015 19.3999 13.0667 19.3999C13.3319 19.3999 13.5863 19.2945 13.7738 19.107C13.9613 18.9195 14.0667 18.6651 14.0667 18.3999V13.3999H19.0667C19.3319 13.3999 19.5863 13.2945 19.7738 13.107C19.9613 12.9195 20.0667 12.6651 20.0667 12.3999C20.0667 12.1347 19.9613 11.8803 19.7738 11.6928C19.5863 11.5053 19.3319 11.3999 19.0667 11.3999H14.0667Z" fill="#2563EB"/>
</svg>
