<svg width="16" height="17" viewBox="0 0 16 17" fill="none" xmlns="http://www.w3.org/2000/svg">
<path d="M8.00004 13.5332C9.41453 13.5332 10.7711 12.9713 11.7713 11.9711C12.7715 10.9709 13.3334 9.61436 13.3334 8.19987C13.3334 6.78538 12.7715 5.42883 11.7713 4.42863C10.7711 3.42844 9.41453 2.86654 8.00004 2.86654C6.58555 2.86654 5.229 3.42844 4.2288 4.42863C3.22861 5.42883 2.66671 6.78538 2.66671 8.19987C2.66671 9.61436 3.22861 10.9709 4.2288 11.9711C5.229 12.9713 6.58555 13.5332 8.00004 13.5332V13.5332ZM8.00004 14.8665C4.31804 14.8665 1.33337 11.8819 1.33337 8.19987C1.33337 4.51787 4.31804 1.5332 8.00004 1.5332C11.682 1.5332 14.6667 4.51787 14.6667 8.19987C14.6667 11.8819 11.682 14.8665 8.00004 14.8665Z" fill="#22C55E"/>
</svg>
