<svg width="24" height="25" viewBox="0 0 24 25" fill="none" xmlns="http://www.w3.org/2000/svg">
<path d="M13.314 12.571L8.36399 7.62098C8.18184 7.43238 8.08104 7.17978 8.08332 6.91758C8.0856 6.65538 8.19077 6.40457 8.37618 6.21916C8.56158 6.03375 8.8124 5.92859 9.07459 5.92631C9.33679 5.92403 9.58939 6.02482 9.77799 6.20698L15.435 11.864C15.6225 12.0515 15.7278 12.3058 15.7278 12.571C15.7278 12.8361 15.6225 13.0905 15.435 13.278L9.77799 18.935C9.58939 19.1171 9.33679 19.2179 9.07459 19.2157C8.8124 19.2134 8.56158 19.1082 8.37618 18.9228C8.19077 18.7374 8.0856 18.4866 8.08332 18.2244C8.08104 17.9622 8.18184 17.7096 8.36399 17.521L13.314 12.571V12.571Z" fill="#475569"/>
</svg>
