<svg width="25" height="24" viewBox="0 0 25 24" fill="none" xmlns="http://www.w3.org/2000/svg">
<path d="M15.9193 10.6569L11.9693 6.70692C11.7872 6.51832 11.6864 6.26571 11.6887 6.00352C11.6909 5.74132 11.7961 5.49051 11.9815 5.3051C12.1669 5.11969 12.4177 5.01452 12.6799 5.01224C12.9421 5.00997 13.1947 5.11076 13.3833 5.29292L19.0403 10.9499C19.1335 11.0426 19.2075 11.1527 19.2579 11.2741C19.3084 11.3954 19.3344 11.5255 19.3344 11.6569C19.3344 11.7883 19.3084 11.9184 19.2579 12.0398C19.2075 12.1611 19.1335 12.2713 19.0403 12.3639L13.3833 18.0209C13.2911 18.1164 13.1808 18.1926 13.0587 18.245C12.9367 18.2974 12.8055 18.325 12.6727 18.3262C12.54 18.3273 12.4083 18.302 12.2854 18.2517C12.1625 18.2015 12.0508 18.1272 11.9569 18.0333C11.8631 17.9394 11.7888 17.8278 11.7385 17.7049C11.6882 17.582 11.6629 17.4503 11.6641 17.3175C11.6652 17.1847 11.6928 17.0535 11.7452 16.9315C11.7977 16.8095 11.8738 16.6992 11.9693 16.6069L15.9193 12.6569H6.33334C6.06813 12.6569 5.81377 12.5516 5.62624 12.364C5.4387 12.1765 5.33334 11.9221 5.33334 11.6569C5.33334 11.3917 5.4387 11.1373 5.62624 10.9498C5.81377 10.7623 6.06813 10.6569 6.33334 10.6569H15.9193V10.6569Z" fill="#2563EB"/>
</svg>
