<svg width="25" height="24" viewBox="0 0 25 24" fill="none" xmlns="http://www.w3.org/2000/svg">
<path d="M16.086 10.6569L12.136 6.70692C11.9538 6.51832 11.853 6.26571 11.8553 6.00352C11.8576 5.74132 11.9628 5.49051 12.1482 5.3051C12.3336 5.11969 12.5844 5.01452 12.8466 5.01224C13.1088 5.00997 13.3614 5.11076 13.55 5.29292L19.207 10.9499C19.3002 11.0426 19.3741 11.1527 19.4246 11.2741C19.4751 11.3954 19.501 11.5255 19.501 11.6569C19.501 11.7883 19.4751 11.9184 19.4246 12.0398C19.3741 12.1611 19.3002 12.2713 19.207 12.3639L13.55 18.0209C13.4578 18.1164 13.3474 18.1926 13.2254 18.245C13.1034 18.2974 12.9722 18.325 12.8394 18.3262C12.7066 18.3273 12.5749 18.302 12.452 18.2517C12.3291 18.2015 12.2175 18.1272 12.1236 18.0333C12.0297 17.9394 11.9555 17.8278 11.9052 17.7049C11.8549 17.582 11.8296 17.4503 11.8307 17.3175C11.8319 17.1847 11.8595 17.0535 11.9119 16.9315C11.9643 16.8095 12.0405 16.6992 12.136 16.6069L16.086 12.6569H6.5C6.23478 12.6569 5.98043 12.5516 5.79289 12.364C5.60536 12.1765 5.5 11.9221 5.5 11.6569C5.5 11.3917 5.60536 11.1373 5.79289 10.9498C5.98043 10.7623 6.23478 10.6569 6.5 10.6569H16.086V10.6569Z" fill="#2563EB"/>
</svg>
