<svg width="25" height="24" viewBox="0 0 25 24" fill="none" xmlns="http://www.w3.org/2000/svg">
<path d="M4.45201 10C4.28417 10.6534 4.1995 11.3254 4.20001 12C4.20001 12.69 4.28801 13.36 4.45201 14H7.30001C7.16519 12.6701 7.16519 11.3299 7.30001 10H4.45201ZM5.27001 8H7.61601C7.88201 6.783 8.26601 5.693 8.73701 4.786C7.28519 5.48542 6.07723 6.60523 5.27001 8V8ZM19.948 10H17.1C17.2348 11.3299 17.2348 12.6701 17.1 14H19.948C20.2847 12.6879 20.2847 11.3121 19.948 10ZM19.13 8C18.3228 6.60523 17.1148 5.48542 15.663 4.786C16.135 5.693 16.518 6.783 16.784 8H19.13ZM9.31201 10C9.23709 10.664 9.1997 11.3318 9.20001 12C9.20001 12.685 9.23801 13.355 9.31201 14H15.088C15.2386 12.6709 15.2386 11.3291 15.088 10H9.31201ZM9.67001 8H14.73C14.548 7.2483 14.2855 6.51841 13.947 5.823C13.319 4.568 12.647 4 12.2 4C11.752 4 11.081 4.568 10.453 5.823C10.138 6.455 9.87301 7.19 9.67001 8ZM5.27001 16C6.07723 17.3948 7.28519 18.5146 8.73701 19.214C8.26501 18.307 7.88201 17.217 7.61601 16H5.27001V16ZM19.13 16H16.784C16.518 17.217 16.134 18.307 15.663 19.214C17.1148 18.5146 18.3228 17.3948 19.13 16ZM9.67001 16C9.87301 16.81 10.138 17.545 10.453 18.177C11.081 19.432 11.753 20 12.2 20C12.648 20 13.319 19.432 13.947 18.177C14.262 17.545 14.527 16.81 14.73 16H9.67001V16ZM12.2 22C6.67701 22 2.20001 17.523 2.20001 12C2.20001 6.477 6.67701 2 12.2 2C17.723 2 22.2 6.477 22.2 12C22.2 17.523 17.723 22 12.2 22Z" fill="#475569"/>
</svg>
