<svg width="25" height="24" viewBox="0 0 25 24" fill="none" xmlns="http://www.w3.org/2000/svg">
<path d="M13.9 11.3999V6.3999C13.9 6.13469 13.7947 5.88033 13.6071 5.6928C13.4196 5.50526 13.1652 5.3999 12.9 5.3999C12.6348 5.3999 12.3805 5.50526 12.1929 5.6928C12.0054 5.88033 11.9 6.13469 11.9 6.3999V11.3999H6.90002C6.63481 11.3999 6.38045 11.5053 6.19292 11.6928C6.00538 11.8803 5.90002 12.1347 5.90002 12.3999C5.90002 12.6651 6.00538 12.9195 6.19292 13.107C6.38045 13.2945 6.63481 13.3999 6.90002 13.3999H11.9V18.3999C11.9 18.6651 12.0054 18.9195 12.1929 19.107C12.3805 19.2945 12.6348 19.3999 12.9 19.3999C13.1652 19.3999 13.4196 19.2945 13.6071 19.107C13.7947 18.9195 13.9 18.6651 13.9 18.3999V13.3999H18.9C19.1652 13.3999 19.4196 13.2945 19.6071 13.107C19.7947 12.9195 19.9 12.6651 19.9 12.3999C19.9 12.1347 19.7947 11.8803 19.6071 11.6928C19.4196 11.5053 19.1652 11.3999 18.9 11.3999H13.9Z" fill="#2563EB"/>
</svg>
