<svg width="24" height="24" viewBox="0 0 24 24" fill="none" xmlns="http://www.w3.org/2000/svg">
<path d="M15.586 10.6569L11.636 6.70692C11.4539 6.51832 11.3531 6.26571 11.3554 6.00352C11.3576 5.74132 11.4628 5.49051 11.6482 5.3051C11.8336 5.11969 12.0844 5.01452 12.3466 5.01224C12.6088 5.00997 12.8614 5.11076 13.05 5.29292L18.707 10.9499C18.8002 11.0426 18.8742 11.1527 18.9246 11.2741C18.9751 11.3954 19.0011 11.5255 19.0011 11.6569C19.0011 11.7883 18.9751 11.9184 18.9246 12.0398C18.8742 12.1611 18.8002 12.2713 18.707 12.3639L13.05 18.0209C12.9578 18.1164 12.8474 18.1926 12.7254 18.245C12.6034 18.2974 12.4722 18.325 12.3394 18.3262C12.2067 18.3273 12.075 18.302 11.9521 18.2517C11.8292 18.2015 11.7175 18.1272 11.6236 18.0333C11.5297 17.9394 11.4555 17.8278 11.4052 17.7049C11.3549 17.582 11.3296 17.4503 11.3308 17.3175C11.3319 17.1847 11.3595 17.0535 11.4119 16.9315C11.4643 16.8095 11.5405 16.6992 11.636 16.6069L15.586 12.6569H6.00003C5.73481 12.6569 5.48046 12.5516 5.29292 12.364C5.10539 12.1765 5.00003 11.9221 5.00003 11.6569C5.00003 11.3917 5.10539 11.1373 5.29292 10.9498C5.48046 10.7623 5.73481 10.6569 6.00003 10.6569H15.586V10.6569Z" fill="white"/>
</svg>
