<svg width="65" height="64" viewBox="0 0 65 64" fill="none" xmlns="http://www.w3.org/2000/svg">
<path d="M35 32.0001H40.3333C41.0406 32.0001 41.7188 32.2811 42.2189 32.7812C42.719 33.2813 43 33.9595 43 34.6668C43 35.374 42.719 36.0523 42.2189 36.5524C41.7188 37.0525 41.0406 37.3335 40.3333 37.3335H32.3333C31.6261 37.3335 30.9478 37.0525 30.4477 36.5524C29.9476 36.0523 29.6666 35.374 29.6666 34.6668V21.3335C29.6666 20.6262 29.9476 19.9479 30.4477 19.4478C30.9478 18.9477 31.6261 18.6668 32.3333 18.6668C33.0406 18.6668 33.7188 18.9477 34.2189 19.4478C34.719 19.9479 35 20.6262 35 21.3335V32.0001ZM55.3466 27.8348C56.4063 31.4152 56.6159 35.1934 55.9588 38.869C55.3017 42.5446 53.7961 46.0162 51.5617 49.0077C49.3272 51.9992 46.4256 54.4281 43.0876 56.1012C39.7496 57.7743 36.0672 58.6456 32.3333 58.6456C28.5994 58.6456 24.9171 57.7743 21.579 56.1012C18.241 54.4281 15.3394 51.9992 13.105 49.0077C10.8705 46.0162 9.36492 42.5446 8.70785 38.869C8.05077 35.1934 8.26037 31.4152 9.31998 27.8348C8.06637 26.5117 7.09735 24.9455 6.47278 23.2332C5.84821 21.5208 5.58136 19.6986 5.68872 17.8791C5.79607 16.0596 6.27534 14.2814 7.09693 12.6543C7.91852 11.0273 9.06497 9.58601 10.4655 8.41947C11.866 7.25293 13.4908 6.38592 15.2395 5.87201C16.9883 5.3581 18.8238 5.20819 20.6328 5.43154C22.4418 5.6549 24.1857 6.24678 25.7569 7.17062C27.3282 8.09445 28.6933 9.33063 29.768 10.8028C31.4734 10.6215 33.1932 10.6215 34.8986 10.8028C35.9733 9.33063 37.3385 8.09445 38.9097 7.17062C40.4809 6.24678 42.2249 5.6549 44.0338 5.43154C45.8428 5.20819 47.6783 5.3581 49.4271 5.87201C51.1758 6.38592 52.8006 7.25293 54.2011 8.41947C55.6017 9.58601 56.7481 11.0273 57.5697 12.6543C58.3913 14.2814 58.8706 16.0596 58.9779 17.8791C59.0853 19.6986 58.8184 21.5208 58.1939 23.2332C57.5693 24.9455 56.6003 26.5117 55.3466 27.8348V27.8348ZM52.8453 22.2001C53.6396 20.5899 53.8692 18.7593 53.497 17.0028C53.1249 15.2463 52.1727 13.666 50.7936 12.5163C49.4145 11.3665 47.6887 10.7141 45.894 10.6641C44.0992 10.614 42.3397 11.1691 40.8986 12.2401C45.873 14.1472 50.0745 17.65 52.8453 22.2001V22.2001ZM23.7653 12.2401C22.3243 11.1691 20.5648 10.614 18.77 10.6641C16.9752 10.7141 15.2495 11.3665 13.8704 12.5163C12.4913 13.666 11.5391 15.2463 11.1669 17.0028C10.7948 18.7593 11.0243 20.5899 11.8186 22.2001C14.5895 17.65 18.791 14.1472 23.7653 12.2401V12.2401ZM32.3333 53.3335C34.7847 53.3335 37.212 52.8506 39.4767 51.9125C41.7415 50.9745 43.7993 49.5995 45.5326 47.8661C47.266 46.1328 48.641 44.075 49.5791 41.8102C50.5172 39.5455 51 37.1181 51 34.6668C51 32.2154 50.5172 29.7881 49.5791 27.5234C48.641 25.2586 47.266 23.2008 45.5326 21.4675C43.7993 19.7341 41.7415 18.3591 39.4767 17.421C37.212 16.4829 34.7847 16.0001 32.3333 16.0001C27.3826 16.0001 22.6347 17.9668 19.134 21.4675C15.6333 24.9681 13.6666 29.7161 13.6666 34.6668C13.6666 39.6175 15.6333 44.3654 19.134 47.8661C22.6347 51.3668 27.3826 53.3335 32.3333 53.3335V53.3335Z" fill="#0F172A"/>
</svg>
