<svg width="24" height="24" viewBox="0 0 24 24" fill="none" xmlns="http://www.w3.org/2000/svg">
<path d="M9.99999 20C9.46956 20 8.96085 19.7893 8.58578 19.4142C8.21071 19.0391 7.99999 18.5304 7.99999 18C7.99999 17.4696 8.21071 16.9609 8.58578 16.5858C8.96085 16.2107 9.46956 16 9.99999 16C10.5304 16 11.0391 16.2107 11.4142 16.5858C11.7893 16.9609 12 17.4696 12 18C12 18.5304 11.7893 19.0391 11.4142 19.4142C11.0391 19.7893 10.5304 20 9.99999 20ZM17 20C16.4696 20 15.9609 19.7893 15.5858 19.4142C15.2107 19.0391 15 18.5304 15 18C15 17.4696 15.2107 16.9609 15.5858 16.5858C15.9609 16.2107 16.4696 16 17 16C17.5304 16 18.0391 16.2107 18.4142 16.5858C18.7893 16.9609 19 17.4696 19 18C19 18.5304 18.7893 19.0391 18.4142 19.4142C18.0391 19.7893 17.5304 20 17 20ZM3.96199 5.923C3.71236 5.91495 3.47563 5.81012 3.30189 5.63068C3.12815 5.45125 3.03101 5.21127 3.03101 4.9615C3.03101 4.71173 3.12815 4.47175 3.30189 4.29232C3.47563 4.11288 3.71236 4.00805 3.96199 4H5.11299C6.01499 4 6.79499 4.626 6.99099 5.506L8.24399 11.148C8.43999 12.028 9.21999 12.654 10.122 12.654H17.634L19.076 6.884H9.73099C9.4837 6.87272 9.25028 6.76654 9.07928 6.58755C8.90827 6.40857 8.81285 6.17055 8.81285 5.923C8.81285 5.67545 8.90827 5.43743 9.07928 5.25845C9.25028 5.07946 9.4837 4.97328 9.73099 4.962H19.076C19.3683 4.96191 19.6568 5.02848 19.9196 5.15663C20.1823 5.28479 20.4124 5.47116 20.5923 5.70158C20.7722 5.93201 20.8972 6.20041 20.9578 6.4864C21.0184 6.77238 21.013 7.06842 20.942 7.352L19.5 13.12C19.396 13.5362 19.1559 13.9057 18.8178 14.1697C18.4797 14.4337 18.063 14.5771 17.634 14.577H10.122C9.24679 14.5771 8.39772 14.2787 7.71501 13.7311C7.0323 13.1835 6.55678 12.4194 6.36699 11.565L5.11299 5.923H3.96199Z" fill="white"/>
</svg>
