<svg width="17" height="16" viewBox="0 0 17 16" fill="none" xmlns="http://www.w3.org/2000/svg">
<path d="M8.33335 13.3335C9.74784 13.3335 11.1044 12.7716 12.1046 11.7714C13.1048 10.7712 13.6667 9.41465 13.6667 8.00016C13.6667 6.58567 13.1048 5.22912 12.1046 4.22893C11.1044 3.22873 9.74784 2.66683 8.33335 2.66683C6.91887 2.66683 5.56231 3.22873 4.56212 4.22893C3.56192 5.22912 3.00002 6.58567 3.00002 8.00016C3.00002 9.41465 3.56192 10.7712 4.56212 11.7714C5.56231 12.7716 6.91887 13.3335 8.33335 13.3335V13.3335ZM8.33335 14.6668C4.65135 14.6668 1.66669 11.6822 1.66669 8.00016C1.66669 4.31816 4.65135 1.3335 8.33335 1.3335C12.0154 1.3335 15 4.31816 15 8.00016C15 11.6822 12.0154 14.6668 8.33335 14.6668Z" fill="#22C55E"/>
</svg>
