<svg width="25" height="24" viewBox="0 0 25 24" fill="none" xmlns="http://www.w3.org/2000/svg">
<path d="M15.4046 7.97181L6.36663 17.0098L5.77563 19.0258L7.75063 18.4548L16.8186 9.38681L15.4046 7.97181ZM16.9466 6.42981L18.3606 7.84381L19.6786 6.52581C19.7724 6.43205 19.825 6.30489 19.825 6.17231C19.825 6.03973 19.7724 5.91257 19.6786 5.81881L18.9706 5.11181C18.8769 5.01807 18.7497 4.96542 18.6171 4.96542C18.4845 4.96542 18.3574 5.01807 18.2636 5.11181L16.9476 6.42981H16.9466ZM20.3856 3.69781L21.0926 4.40481C21.5613 4.87363 21.8246 5.5094 21.8246 6.17231C21.8246 6.83522 21.5613 7.47099 21.0926 7.93981L8.80063 20.2328L4.58063 21.4528C4.40862 21.5024 4.22645 21.5049 4.05313 21.4601C3.87982 21.4152 3.72172 21.3247 3.59534 21.1979C3.46896 21.0711 3.37893 20.9127 3.33466 20.7393C3.29038 20.5658 3.29348 20.3837 3.34363 20.2118L4.59163 15.9568L16.8516 3.69681C17.3205 3.22813 17.9562 2.96484 18.6191 2.96484C19.282 2.96484 19.9178 3.22813 20.3866 3.69681L20.3856 3.69781Z" fill="#475569"/>
</svg>
