<svg width="16" height="16" viewBox="0 0 16 16" fill="none" xmlns="http://www.w3.org/2000/svg">
<path d="M7.99998 13.3333C9.41447 13.3333 10.771 12.7714 11.7712 11.7712C12.7714 10.7711 13.3333 9.4145 13.3333 8.00001C13.3333 6.58552 12.7714 5.22897 11.7712 4.22877C10.771 3.22858 9.41447 2.66668 7.99998 2.66668C6.58549 2.66668 5.22894 3.22858 4.22874 4.22877C3.22855 5.22897 2.66665 6.58552 2.66665 8.00001C2.66665 9.4145 3.22855 10.7711 4.22874 11.7712C5.22894 12.7714 6.58549 13.3333 7.99998 13.3333V13.3333ZM7.99998 14.6667C4.31798 14.6667 1.33331 11.682 1.33331 8.00001C1.33331 4.31801 4.31798 1.33334 7.99998 1.33334C11.682 1.33334 14.6666 4.31801 14.6666 8.00001C14.6666 11.682 11.682 14.6667 7.99998 14.6667Z" fill="#C084FC"/>
</svg>
