<svg width="24" height="25" viewBox="0 0 24 25" fill="none" xmlns="http://www.w3.org/2000/svg">
<path d="M12 22.5C6.477 22.5 2 18.023 2 12.5C2 6.977 6.477 2.5 12 2.5C17.523 2.5 22 6.977 22 12.5C22 18.023 17.523 22.5 12 22.5ZM12 20.5C14.1217 20.5 16.1566 19.6571 17.6569 18.1569C19.1571 16.6566 20 14.6217 20 12.5C20 10.3783 19.1571 8.34344 17.6569 6.84315C16.1566 5.34285 14.1217 4.5 12 4.5C9.87827 4.5 7.84344 5.34285 6.34315 6.84315C4.84285 8.34344 4 10.3783 4 12.5C4 14.6217 4.84285 16.6566 6.34315 18.1569C7.84344 19.6571 9.87827 20.5 12 20.5V20.5ZM16.126 14.246L12.071 17.144C11.166 17.79 9.941 17.533 9.334 16.568C9.11494 16.2171 8.99918 15.8116 9 15.398V9.602C9 8.442 9.883 7.5 10.972 7.5C11.363 7.5 11.746 7.624 12.071 7.856L16.126 10.754C17.031 11.401 17.272 12.706 16.666 13.671C16.5251 13.8959 16.3417 14.0913 16.126 14.246V14.246ZM10.972 9.602V15.398L15.027 12.5L10.972 9.602Z" fill="#78350F"/>
</svg>
