<svg width="25" height="24" viewBox="0 0 25 24" fill="none" xmlns="http://www.w3.org/2000/svg">
<path d="M13.5666 11.3999V6.3999C13.5666 6.13469 13.4613 5.88033 13.2738 5.6928C13.0862 5.50526 12.8319 5.3999 12.5667 5.3999C12.3014 5.3999 12.0471 5.50526 11.8595 5.6928C11.672 5.88033 11.5667 6.13469 11.5667 6.3999V11.3999H6.56665C6.30143 11.3999 6.04708 11.5053 5.85954 11.6928C5.67201 11.8803 5.56665 12.1347 5.56665 12.3999C5.56665 12.6651 5.67201 12.9195 5.85954 13.107C6.04708 13.2945 6.30143 13.3999 6.56665 13.3999H11.5667V18.3999C11.5667 18.6651 11.672 18.9195 11.8595 19.107C12.0471 19.2945 12.3014 19.3999 12.5667 19.3999C12.8319 19.3999 13.0862 19.2945 13.2738 19.107C13.4613 18.9195 13.5666 18.6651 13.5666 18.3999V13.3999H18.5667C18.8319 13.3999 19.0862 13.2945 19.2738 13.107C19.4613 12.9195 19.5667 12.6651 19.5667 12.3999C19.5667 12.1347 19.4613 11.8803 19.2738 11.6928C19.0862 11.5053 18.8319 11.3999 18.5667 11.3999H13.5666Z" fill="#2563EB"/>
</svg>
