<svg width="24" height="24" viewBox="0 0 24 24" fill="none" xmlns="http://www.w3.org/2000/svg">
<path d="M10 20C9.46957 20 8.96086 19.7893 8.58579 19.4142C8.21072 19.0391 8 18.5304 8 18C8 17.4696 8.21072 16.9609 8.58579 16.5858C8.96086 16.2107 9.46957 16 10 16C10.5304 16 11.0391 16.2107 11.4142 16.5858C11.7893 16.9609 12 17.4696 12 18C12 18.5304 11.7893 19.0391 11.4142 19.4142C11.0391 19.7893 10.5304 20 10 20ZM17 20C16.4696 20 15.9609 19.7893 15.5858 19.4142C15.2107 19.0391 15 18.5304 15 18C15 17.4696 15.2107 16.9609 15.5858 16.5858C15.9609 16.2107 16.4696 16 17 16C17.5304 16 18.0391 16.2107 18.4142 16.5858C18.7893 16.9609 19 17.4696 19 18C19 18.5304 18.7893 19.0391 18.4142 19.4142C18.0391 19.7893 17.5304 20 17 20ZM3.962 5.923C3.71236 5.91495 3.47564 5.81012 3.3019 5.63068C3.12816 5.45125 3.03101 5.21127 3.03101 4.9615C3.03101 4.71173 3.12816 4.47175 3.3019 4.29232C3.47564 4.11288 3.71236 4.00805 3.962 4H5.113C6.015 4 6.795 4.626 6.991 5.506L8.244 11.148C8.44 12.028 9.22 12.654 10.122 12.654H17.634L19.076 6.884H9.731C9.48371 6.87272 9.25029 6.76654 9.07929 6.58755C8.90828 6.40857 8.81285 6.17055 8.81285 5.923C8.81285 5.67545 8.90828 5.43743 9.07929 5.25845C9.25029 5.07946 9.48371 4.97328 9.731 4.962H19.076C19.3683 4.96191 19.6568 5.02848 19.9196 5.15663C20.1823 5.28479 20.4124 5.47116 20.5923 5.70158C20.7722 5.93201 20.8972 6.20041 20.9578 6.4864C21.0184 6.77238 21.013 7.06842 20.942 7.352L19.5 13.12C19.396 13.5362 19.1559 13.9057 18.8178 14.1697C18.4797 14.4337 18.063 14.5771 17.634 14.577H10.122C9.2468 14.5771 8.39773 14.2787 7.71501 13.7311C7.0323 13.1835 6.55679 12.4194 6.367 11.565L5.113 5.923H3.962Z" fill="white"/>
</svg>
