<svg width="24" height="25" viewBox="0 0 24 25" fill="none" xmlns="http://www.w3.org/2000/svg">
<path d="M10.757 12.5001L15.707 17.4501C15.8025 17.5423 15.8787 17.6526 15.9311 17.7747C15.9835 17.8967 16.0111 18.0279 16.0123 18.1607C16.0134 18.2934 15.9881 18.4251 15.9378 18.548C15.8875 18.6709 15.8133 18.7826 15.7194 18.8765C15.6255 18.9703 15.5139 19.0446 15.391 19.0949C15.2681 19.1452 15.1364 19.1705 15.0036 19.1693C14.8708 19.1682 14.7396 19.1406 14.6176 19.0882C14.4956 19.0358 14.3852 18.9596 14.293 18.8641L8.636 13.2071C8.44853 13.0195 8.34322 12.7652 8.34322 12.5001C8.34322 12.2349 8.44853 11.9806 8.636 11.7931L14.293 6.13606C14.4816 5.9539 14.7342 5.85311 14.9964 5.85538C15.2586 5.85766 15.5094 5.96283 15.6948 6.14824C15.8802 6.33365 15.9854 6.58446 15.9877 6.84666C15.99 7.10885 15.8892 7.36146 15.707 7.55006L10.757 12.5001Z" fill="#94A3B8"/>
</svg>
