<svg width="25" height="24" viewBox="0 0 25 24" fill="none" xmlns="http://www.w3.org/2000/svg">
<path d="M15.7527 10.6569L11.8027 6.70692C11.6205 6.51832 11.5197 6.26571 11.522 6.00352C11.5243 5.74132 11.6294 5.49051 11.8148 5.3051C12.0002 5.11969 12.2511 5.01452 12.5133 5.01224C12.7755 5.00997 13.0281 5.11076 13.2167 5.29292L18.8737 10.9499C18.9668 11.0426 19.0408 11.1527 19.0913 11.2741C19.1417 11.3954 19.1677 11.5255 19.1677 11.6569C19.1677 11.7883 19.1417 11.9184 19.0913 12.0398C19.0408 12.1611 18.9668 12.2713 18.8737 12.3639L13.2167 18.0209C13.1244 18.1164 13.0141 18.1926 12.8921 18.245C12.7701 18.2974 12.6388 18.325 12.5061 18.3262C12.3733 18.3273 12.2416 18.302 12.1187 18.2517C11.9958 18.2015 11.8842 18.1272 11.7903 18.0333C11.6964 17.9394 11.6221 17.8278 11.5718 17.7049C11.5216 17.582 11.4963 17.4503 11.4974 17.3175C11.4986 17.1847 11.5261 17.0535 11.5786 16.9315C11.631 16.8095 11.7071 16.6992 11.8027 16.6069L15.7527 12.6569H6.16666C5.90144 12.6569 5.64709 12.5516 5.45955 12.364C5.27201 12.1765 5.16666 11.9221 5.16666 11.6569C5.16666 11.3917 5.27201 11.1373 5.45955 10.9498C5.64709 10.7623 5.90144 10.6569 6.16666 10.6569H15.7527V10.6569Z" fill="#2563EB"/>
</svg>
