<svg width="17" height="16" viewBox="0 0 17 16" fill="none" xmlns="http://www.w3.org/2000/svg">
<path d="M8.20002 13.3333C9.61451 13.3333 10.9711 12.7714 11.9713 11.7712C12.9715 10.771 13.5334 9.41447 13.5334 7.99998C13.5334 6.58549 12.9715 5.22894 11.9713 4.22874C10.9711 3.22855 9.61451 2.66665 8.20002 2.66665C6.78553 2.66665 5.42898 3.22855 4.42879 4.22874C3.42859 5.22894 2.86669 6.58549 2.86669 7.99998C2.86669 9.41447 3.42859 10.771 4.42879 11.7712C5.42898 12.7714 6.78553 13.3333 8.20002 13.3333V13.3333ZM8.20002 14.6666C4.51802 14.6666 1.53336 11.682 1.53336 7.99998C1.53336 4.31798 4.51802 1.33331 8.20002 1.33331C11.882 1.33331 14.8667 4.31798 14.8667 7.99998C14.8667 11.682 11.882 14.6666 8.20002 14.6666Z" fill="#C084FC"/>
</svg>
