<svg width="25" height="24" viewBox="0 0 25 24" fill="none" xmlns="http://www.w3.org/2000/svg">
<path d="M15.786 10.657L11.836 6.70698C11.6539 6.51838 11.5531 6.26578 11.5553 6.00358C11.5576 5.74138 11.6628 5.49057 11.8482 5.30516C12.0336 5.11975 12.2844 5.01458 12.5466 5.01231C12.8088 5.01003 13.0614 5.11082 13.25 5.29298L18.907 10.95C19.0002 11.0426 19.0741 11.1528 19.1246 11.2741C19.1751 11.3955 19.201 11.5256 19.201 11.657C19.201 11.7884 19.1751 11.9185 19.1246 12.0398C19.0741 12.1612 19.0002 12.2713 18.907 12.364L13.25 18.021C13.1578 18.1165 13.0474 18.1927 12.9254 18.2451C12.8034 18.2975 12.6722 18.3251 12.5394 18.3262C12.4066 18.3274 12.275 18.3021 12.1521 18.2518C12.0292 18.2015 11.9175 18.1273 11.8236 18.0334C11.7297 17.9395 11.6555 17.8278 11.6052 17.7049C11.5549 17.582 11.5296 17.4504 11.5308 17.3176C11.5319 17.1848 11.5595 17.0536 11.6119 16.9316C11.6643 16.8096 11.7405 16.6992 11.836 16.607L15.786 12.657H6.20001C5.9348 12.657 5.68044 12.5516 5.49291 12.3641C5.30537 12.1766 5.20001 11.9222 5.20001 11.657C5.20001 11.3918 5.30537 11.1374 5.49291 10.9499C5.68044 10.7623 5.9348 10.657 6.20001 10.657H15.786V10.657Z" fill="#475569"/>
</svg>
