<svg width="25" height="24" viewBox="0 0 25 24" fill="none" xmlns="http://www.w3.org/2000/svg">
<path d="M13.7333 11.3999V6.3999C13.7333 6.13469 13.628 5.88033 13.4404 5.6928C13.2529 5.50526 12.9986 5.3999 12.7333 5.3999C12.4681 5.3999 12.2138 5.50526 12.0262 5.6928C11.8387 5.88033 11.7333 6.13469 11.7333 6.3999V11.3999H6.73334C6.46812 11.3999 6.21377 11.5053 6.02623 11.6928C5.83869 11.8803 5.73334 12.1347 5.73334 12.3999C5.73334 12.6651 5.83869 12.9195 6.02623 13.107C6.21377 13.2945 6.46812 13.3999 6.73334 13.3999H11.7333V18.3999C11.7333 18.6651 11.8387 18.9195 12.0262 19.107C12.2138 19.2945 12.4681 19.3999 12.7333 19.3999C12.9986 19.3999 13.2529 19.2945 13.4404 19.107C13.628 18.9195 13.7333 18.6651 13.7333 18.3999V13.3999H18.7333C18.9986 13.3999 19.2529 13.2945 19.4404 13.107C19.628 12.9195 19.7333 12.6651 19.7333 12.3999C19.7333 12.1347 19.628 11.8803 19.4404 11.6928C19.2529 11.5053 18.9986 11.3999 18.7333 11.3999H13.7333Z" fill="#2563EB"/>
</svg>
