<svg width="17" height="16" viewBox="0 0 17 16" fill="none" xmlns="http://www.w3.org/2000/svg">
<path d="M8.33331 13.3335C9.7478 13.3335 11.1044 12.7716 12.1046 11.7714C13.1047 10.7712 13.6666 9.41465 13.6666 8.00016C13.6666 6.58567 13.1047 5.22912 12.1046 4.22893C11.1044 3.22873 9.7478 2.66683 8.33331 2.66683C6.91883 2.66683 5.56227 3.22873 4.56208 4.22893C3.56188 5.22912 2.99998 6.58567 2.99998 8.00016C2.99998 9.41465 3.56188 10.7712 4.56208 11.7714C5.56227 12.7716 6.91883 13.3335 8.33331 13.3335V13.3335ZM8.33331 14.6668C4.65131 14.6668 1.66665 11.6822 1.66665 8.00016C1.66665 4.31816 4.65131 1.3335 8.33331 1.3335C12.0153 1.3335 15 4.31816 15 8.00016C15 11.6822 12.0153 14.6668 8.33331 14.6668Z" fill="#C084FC"/>
</svg>
