<svg width="25" height="24" viewBox="0 0 25 24" fill="none" xmlns="http://www.w3.org/2000/svg">
<path d="M15.0713 7.97181L6.03332 17.0098L5.44232 19.0258L7.41732 18.4548L16.4853 9.38681L15.0713 7.97181ZM16.6133 6.42981L18.0273 7.84381L19.3453 6.52581C19.4391 6.43205 19.4917 6.30489 19.4917 6.17231C19.4917 6.03973 19.4391 5.91257 19.3453 5.81881L18.6373 5.11181C18.5436 5.01807 18.4164 4.96542 18.2838 4.96542C18.1512 4.96542 18.0241 5.01807 17.9303 5.11181L16.6143 6.42981H16.6133ZM20.0523 3.69781L20.7593 4.40481C21.228 4.87363 21.4913 5.5094 21.4913 6.17231C21.4913 6.83522 21.228 7.47099 20.7593 7.93981L8.46732 20.2328L4.24732 21.4528C4.07531 21.5024 3.89313 21.5049 3.71982 21.4601C3.54651 21.4152 3.38841 21.3247 3.26203 21.1979C3.13565 21.0711 3.04562 20.9127 3.00134 20.7393C2.95707 20.5658 2.96017 20.3837 3.01032 20.2118L4.25832 15.9568L16.5183 3.69681C16.9871 3.22813 17.6229 2.96484 18.2858 2.96484C18.9487 2.96484 19.5845 3.22813 20.0533 3.69681L20.0523 3.69781Z" fill="#475569"/>
</svg>
