<svg width="16" height="17" viewBox="0 0 16 17" fill="none" xmlns="http://www.w3.org/2000/svg">
<path d="M8.00004 13.7332C9.41453 13.7332 10.7711 13.1713 11.7713 12.1711C12.7715 11.1709 13.3334 9.81431 13.3334 8.39982C13.3334 6.98533 12.7715 5.62878 11.7713 4.62858C10.7711 3.62839 9.41453 3.06649 8.00004 3.06649C6.58555 3.06649 5.229 3.62839 4.2288 4.62858C3.22861 5.62878 2.66671 6.98533 2.66671 8.39982C2.66671 9.81431 3.22861 11.1709 4.2288 12.1711C5.229 13.1713 6.58555 13.7332 8.00004 13.7332V13.7332ZM8.00004 15.0665C4.31804 15.0665 1.33337 12.0818 1.33337 8.39982C1.33337 4.71782 4.31804 1.73315 8.00004 1.73315C11.682 1.73315 14.6667 4.71782 14.6667 8.39982C14.6667 12.0818 11.682 15.0665 8.00004 15.0665Z" fill="#C084FC"/>
</svg>
