<svg width="24" height="25" viewBox="0 0 24 25" fill="none" xmlns="http://www.w3.org/2000/svg">
<path d="M10.757 12.4999L15.707 17.4499C15.8025 17.5422 15.8787 17.6525 15.9311 17.7745C15.9835 17.8965 16.0111 18.0278 16.0123 18.1605C16.0134 18.2933 15.9881 18.425 15.9378 18.5479C15.8875 18.6708 15.8133 18.7824 15.7194 18.8763C15.6255 18.9702 15.5139 19.0445 15.391 19.0948C15.2681 19.145 15.1364 19.1703 15.0036 19.1692C14.8708 19.168 14.7396 19.1404 14.6176 19.088C14.4956 19.0356 14.3852 18.9594 14.293 18.8639L8.636 13.2069C8.44853 13.0194 8.34322 12.7651 8.34322 12.4999C8.34322 12.2348 8.44853 11.9805 8.636 11.7929L14.293 6.13594C14.4816 5.95378 14.7342 5.85298 14.9964 5.85526C15.2586 5.85754 15.5094 5.96271 15.6948 6.14812C15.8802 6.33353 15.9854 6.58434 15.9877 6.84654C15.99 7.10873 15.8892 7.36133 15.707 7.54994L10.757 12.4999Z" fill="#94A3B8"/>
</svg>
