<svg width="25" height="24" viewBox="0 0 25 24" fill="none" xmlns="http://www.w3.org/2000/svg">
<path d="M15.4047 7.97181L6.36669 17.0098L5.77569 19.0258L7.75069 18.4548L16.8187 9.38681L15.4047 7.97181ZM16.9467 6.42981L18.3607 7.84381L19.6787 6.52581C19.7724 6.43205 19.8251 6.30489 19.8251 6.17231C19.8251 6.03973 19.7724 5.91257 19.6787 5.81881L18.9707 5.11181C18.8769 5.01807 18.7498 4.96542 18.6172 4.96542C18.4846 4.96542 18.3575 5.01807 18.2637 5.11181L16.9477 6.42981H16.9467ZM20.3857 3.69781L21.0927 4.40481C21.5614 4.87363 21.8247 5.5094 21.8247 6.17231C21.8247 6.83522 21.5614 7.47099 21.0927 7.93981L8.80069 20.2328L4.58069 21.4528C4.40868 21.5024 4.22651 21.5049 4.0532 21.4601C3.87988 21.4152 3.72178 21.3247 3.5954 21.1979C3.46902 21.0711 3.37899 20.9127 3.33472 20.7393C3.29044 20.5658 3.29354 20.3837 3.34369 20.2118L4.59169 15.9568L16.8517 3.69681C17.3205 3.22813 17.9563 2.96484 18.6192 2.96484C19.2821 2.96484 19.9179 3.22813 20.3867 3.69681L20.3857 3.69781Z" fill="#475569"/>
</svg>
