<svg width="24" height="24" viewBox="0 0 24 24" fill="none" xmlns="http://www.w3.org/2000/svg">
<path d="M20.025 7.26899H15.024V6.02699H20.025V7.26899V7.26899ZM11.695 12.363C12.017 12.863 12.178 13.47 12.178 14.182C12.178 14.919 11.996 15.58 11.627 16.164C11.3994 16.5425 11.1009 16.8735 10.748 17.139C10.3344 17.4513 9.85483 17.6647 9.346 17.763C8.76885 17.878 8.18149 17.934 7.593 17.93H2V5.51099H7.998C9.509 5.53599 10.58 5.97399 11.214 6.83399C11.594 7.36199 11.782 7.99399 11.782 8.73099C11.782 9.48999 11.592 10.097 11.208 10.559C10.995 10.818 10.68 11.053 10.263 11.266C10.894 11.497 11.373 11.861 11.694 12.363H11.695ZM4.865 10.408H7.492C8.032 10.408 8.469 10.305 8.805 10.1C9.141 9.89499 9.309 9.52999 9.309 9.00799C9.309 8.42999 9.087 8.04699 8.642 7.86199C8.259 7.73399 7.77 7.66799 7.176 7.66799H4.864V10.408H4.865ZM9.562 14.005C9.562 13.36 9.298 12.914 8.772 12.675C8.477 12.538 8.062 12.469 7.53 12.464H4.864V15.774H7.49C8.029 15.774 8.446 15.703 8.747 15.556C9.29 15.285 9.563 14.77 9.563 14.005H9.562ZM21.88 11.985C21.94 12.391 21.968 12.98 21.957 13.751H15.48C15.516 14.645 15.824 15.27 16.41 15.628C16.763 15.852 17.19 15.962 17.692 15.962C18.22 15.962 18.651 15.828 18.982 15.553C19.163 15.408 19.322 15.203 19.46 14.943H21.834C21.772 15.471 21.486 16.007 20.973 16.551C20.177 17.416 19.061 17.85 17.627 17.85C16.443 17.85 15.399 17.484 14.493 16.755C13.59 16.023 13.137 14.837 13.137 13.191C13.137 11.648 13.544 10.467 14.361 9.64499C15.181 8.82099 16.239 8.41099 17.543 8.41099C18.317 8.41099 19.013 8.54899 19.635 8.82699C20.255 9.10499 20.767 9.54299 21.171 10.144C21.536 10.674 21.771 11.286 21.881 11.984L21.88 11.985ZM19.543 12.216C19.5 11.598 19.293 11.13 18.922 10.81C18.553 10.49 18.092 10.329 17.543 10.329C16.945 10.329 16.483 10.501 16.156 10.839C15.826 11.176 15.62 11.635 15.536 12.216H19.543Z" fill="#475569"/>
</svg>
