<svg width="64" height="64" viewBox="0 0 64 64" fill="none" xmlns="http://www.w3.org/2000/svg">
<path d="M34.6667 32.0001H40C40.7073 32.0001 41.3855 32.2811 41.8856 32.7812C42.3857 33.2813 42.6667 33.9595 42.6667 34.6668C42.6667 35.374 42.3857 36.0523 41.8856 36.5524C41.3855 37.0525 40.7073 37.3335 40 37.3335H32C31.2928 37.3335 30.6145 37.0525 30.1144 36.5524C29.6143 36.0523 29.3334 35.374 29.3334 34.6668V21.3335C29.3334 20.6262 29.6143 19.9479 30.1144 19.4478C30.6145 18.9477 31.2928 18.6668 32 18.6668C32.7073 18.6668 33.3855 18.9477 33.8856 19.4478C34.3857 19.9479 34.6667 20.6262 34.6667 21.3335V32.0001ZM55.0134 27.8348C56.073 31.4152 56.2826 35.1934 55.6255 38.869C54.9684 42.5446 53.4628 46.0162 51.2284 49.0077C48.9939 51.9992 46.0923 54.4281 42.7543 56.1012C39.4163 57.7743 35.7339 58.6456 32 58.6456C28.2661 58.6456 24.5838 57.7743 21.2457 56.1012C17.9077 54.4281 15.0061 51.9992 12.7717 49.0077C10.5372 46.0162 9.03163 42.5446 8.37455 38.869C7.71748 35.1934 7.92708 31.4152 8.98669 27.8348C7.73307 26.5117 6.76405 24.9455 6.13949 23.2332C5.51492 21.5208 5.24807 19.6986 5.35542 17.8791C5.46277 16.0596 5.94205 14.2814 6.76364 12.6543C7.58522 11.0273 8.73168 9.58601 10.1322 8.41947C11.5327 7.25293 13.1575 6.38592 14.9062 5.87201C16.655 5.3581 18.4905 5.20819 20.2995 5.43154C22.1085 5.6549 23.8524 6.24678 25.4236 7.17062C26.9949 8.09445 28.36 9.33063 29.4347 10.8028C31.1401 10.6215 32.8599 10.6215 34.5654 10.8028C35.6401 9.33063 37.0052 8.09445 38.5764 7.17062C40.1476 6.24678 41.8916 5.6549 43.7005 5.43154C45.5095 5.20819 47.345 5.3581 49.0938 5.87201C50.8425 6.38592 52.4674 7.25293 53.8679 8.41947C55.2684 9.58601 56.4148 11.0273 57.2364 12.6543C58.058 14.2814 58.5373 16.0596 58.6446 17.8791C58.752 19.6986 58.4851 21.5208 57.8606 23.2332C57.236 24.9455 56.267 26.5117 55.0134 27.8348V27.8348ZM52.512 22.2001C53.3063 20.5899 53.5359 18.7593 53.1637 17.0028C52.7916 15.2463 51.8394 13.666 50.4603 12.5163C49.0812 11.3665 47.3555 10.7141 45.5607 10.6641C43.7659 10.614 42.0064 11.1691 40.5654 12.2401C45.5397 14.1472 49.7412 17.65 52.512 22.2001V22.2001ZM23.432 12.2401C21.991 11.1691 20.2315 10.614 18.4367 10.6641C16.6419 10.7141 14.9162 11.3665 13.5371 12.5163C12.158 13.666 11.2058 15.2463 10.8336 17.0028C10.4615 18.7593 10.691 20.5899 11.4854 22.2001C14.2562 17.65 18.4577 14.1472 23.432 12.2401V12.2401ZM32 53.3335C34.4514 53.3335 36.8787 52.8506 39.1434 51.9125C41.4082 50.9745 43.466 49.5995 45.1993 47.8661C46.9327 46.1328 48.3077 44.075 49.2458 41.8102C50.1839 39.5455 50.6667 37.1181 50.6667 34.6668C50.6667 32.2154 50.1839 29.7881 49.2458 27.5234C48.3077 25.2586 46.9327 23.2008 45.1993 21.4675C43.466 19.7341 41.4082 18.3591 39.1434 17.421C36.8787 16.4829 34.4514 16.0001 32 16.0001C27.0493 16.0001 22.3014 17.9668 18.8007 21.4675C15.3 24.9681 13.3334 29.7161 13.3334 34.6668C13.3334 39.6175 15.3 44.3654 18.8007 47.8661C22.3014 51.3668 27.0493 53.3335 32 53.3335V53.3335Z" fill="#0F172A"/>
</svg>
