<svg width="24" height="25" viewBox="0 0 24 25" fill="none" xmlns="http://www.w3.org/2000/svg">
<path d="M14.738 8.17201L5.7 17.21L5.109 19.226L7.084 18.655L16.152 9.58701L14.738 8.17201ZM16.28 6.63001L17.694 8.044L19.012 6.72601C19.1057 6.63224 19.1584 6.50509 19.1584 6.37251C19.1584 6.23992 19.1057 6.11277 19.012 6.01901L18.304 5.31201C18.2102 5.21827 18.0831 5.16561 17.9505 5.16561C17.8179 5.16561 17.6908 5.21827 17.597 5.31201L16.281 6.63001H16.28ZM19.719 3.89801L20.426 4.60501C20.8947 5.07382 21.158 5.70959 21.158 6.37251C21.158 7.03542 20.8947 7.67119 20.426 8.14001L8.134 20.433L3.914 21.653C3.74199 21.7026 3.55982 21.7051 3.38651 21.6603C3.2132 21.6154 3.0551 21.5249 2.92872 21.3981C2.80233 21.2713 2.71231 21.1129 2.66803 20.9395C2.62375 20.766 2.62685 20.5839 2.677 20.412L3.925 16.157L16.185 3.89701C16.6538 3.42833 17.2896 3.16504 17.9525 3.16504C18.6154 3.16504 19.2512 3.42833 19.72 3.89701L19.719 3.89801Z" fill="#475569"/>
</svg>
