<svg width="25" height="24" viewBox="0 0 25 24" fill="none" xmlns="http://www.w3.org/2000/svg">
<path d="M15.786 10.657L11.836 6.70701C11.6539 6.51841 11.5531 6.26581 11.5553 6.00361C11.5576 5.74141 11.6628 5.4906 11.8482 5.30519C12.0336 5.11978 12.2844 5.01461 12.5466 5.01234C12.8088 5.01006 13.0614 5.11085 13.25 5.29301L18.907 10.95C19.0002 11.0427 19.0741 11.1528 19.1246 11.2742C19.1751 11.3955 19.201 11.5256 19.201 11.657C19.201 11.7884 19.1751 11.9185 19.1246 12.0399C19.0741 12.1612 19.0002 12.2714 18.907 12.364L13.25 18.021C13.1578 18.1165 13.0474 18.1927 12.9254 18.2451C12.8034 18.2975 12.6722 18.3251 12.5394 18.3263C12.4066 18.3274 12.275 18.3021 12.1521 18.2518C12.0292 18.2016 11.9175 18.1273 11.8236 18.0334C11.7297 17.9395 11.6555 17.8279 11.6052 17.705C11.5549 17.5821 11.5296 17.4504 11.5308 17.3176C11.5319 17.1848 11.5595 17.0536 11.6119 16.9316C11.6643 16.8096 11.7405 16.6993 11.836 16.607L15.786 12.657H6.20001C5.9348 12.657 5.68044 12.5517 5.49291 12.3641C5.30537 12.1766 5.20001 11.9222 5.20001 11.657C5.20001 11.3918 5.30537 11.1374 5.49291 10.9499C5.68044 10.7624 5.9348 10.657 6.20001 10.657H15.786V10.657Z" fill="#475569"/>
</svg>
