<svg width="25" height="24" viewBox="0 0 25 24" fill="none" xmlns="http://www.w3.org/2000/svg">
<path d="M15.9194 10.6569L11.9694 6.70692C11.7872 6.51832 11.6864 6.26571 11.6887 6.00352C11.691 5.74132 11.7961 5.49051 11.9816 5.3051C12.167 5.11969 12.4178 5.01452 12.68 5.01224C12.9422 5.00997 13.1948 5.11076 13.3834 5.29292L19.0404 10.9499C19.1336 11.0426 19.2075 11.1527 19.258 11.2741C19.3084 11.3954 19.3344 11.5255 19.3344 11.6569C19.3344 11.7883 19.3084 11.9184 19.258 12.0398C19.2075 12.1611 19.1336 12.2713 19.0404 12.3639L13.3834 18.0209C13.2911 18.1164 13.1808 18.1926 13.0588 18.245C12.9368 18.2974 12.8056 18.325 12.6728 18.3262C12.54 18.3273 12.4083 18.302 12.2854 18.2517C12.1625 18.2015 12.0509 18.1272 11.957 18.0333C11.8631 17.9394 11.7888 17.8278 11.7386 17.7049C11.6883 17.582 11.663 17.4503 11.6641 17.3175C11.6653 17.1847 11.6929 17.0535 11.7453 16.9315C11.7977 16.8095 11.8739 16.6992 11.9694 16.6069L15.9194 12.6569H6.33337C6.06816 12.6569 5.8138 12.5516 5.62627 12.364C5.43873 12.1765 5.33337 11.9221 5.33337 11.6569C5.33337 11.3917 5.43873 11.1373 5.62627 10.9498C5.8138 10.7623 6.06816 10.6569 6.33337 10.6569H15.9194V10.6569Z" fill="white"/>
</svg>
