<svg width="25" height="24" viewBox="0 0 25 24" fill="none" xmlns="http://www.w3.org/2000/svg">
<path d="M14.2333 11.3999V6.3999C14.2333 6.13469 14.128 5.88033 13.9404 5.6928C13.7529 5.50526 13.4985 5.3999 13.2333 5.3999C12.9681 5.3999 12.7137 5.50526 12.5262 5.6928C12.3387 5.88033 12.2333 6.13469 12.2333 6.3999V11.3999H7.23331C6.96809 11.3999 6.71374 11.5053 6.5262 11.6928C6.33866 11.8803 6.23331 12.1347 6.23331 12.3999C6.23331 12.6651 6.33866 12.9195 6.5262 13.107C6.71374 13.2945 6.96809 13.3999 7.23331 13.3999H12.2333V18.3999C12.2333 18.6651 12.3387 18.9195 12.5262 19.107C12.7137 19.2945 12.9681 19.3999 13.2333 19.3999C13.4985 19.3999 13.7529 19.2945 13.9404 19.107C14.128 18.9195 14.2333 18.6651 14.2333 18.3999V13.3999H19.2333C19.4985 13.3999 19.7529 13.2945 19.9404 13.107C20.128 12.9195 20.2333 12.6651 20.2333 12.3999C20.2333 12.1347 20.128 11.8803 19.9404 11.6928C19.7529 11.5053 19.4985 11.3999 19.2333 11.3999H14.2333Z" fill="#2563EB"/>
</svg>
