<svg width="24" height="24" viewBox="0 0 24 24" fill="none" xmlns="http://www.w3.org/2000/svg">
<path d="M12.0098 2C6.48977 2 2.00977 6.48 2.00977 12C2.00977 17.52 6.48977 22 12.0098 22C17.5198 22 22.0098 17.52 22.0098 12C22.0098 6.48 17.5198 2 12.0098 2ZM18.6148 6.61C19.8455 8.10931 20.5265 9.98437 20.5448 11.924C20.2638 11.87 17.4438 11.295 14.6018 11.653C14.5368 11.512 14.4818 11.36 14.4178 11.208C14.2408 10.791 14.0527 10.3789 13.8538 9.972C16.9988 8.692 18.4308 6.848 18.6148 6.61V6.61ZM12.0098 3.475C14.1798 3.475 16.1638 4.288 17.6718 5.623C17.5198 5.839 16.2288 7.564 13.1918 8.703C11.7928 6.133 10.2418 4.028 10.0028 3.703C10.6606 3.54921 11.3342 3.47269 12.0098 3.475V3.475ZM8.37677 4.278C9.5212 5.86432 10.5784 7.51175 11.5438 9.213C7.55177 10.275 4.02677 10.253 3.64777 10.253C3.92259 8.96013 4.49237 7.74822 5.31267 6.71179C6.13296 5.67537 7.18159 4.84245 8.37677 4.278V4.278ZM3.46277 12.01V11.75C3.83277 11.76 7.97477 11.815 12.2378 10.535C12.4878 11.012 12.7148 11.5 12.9318 11.988C12.8228 12.021 12.7038 12.053 12.5958 12.086C8.19177 13.506 5.84877 17.389 5.65377 17.715C4.2436 16.1495 3.4634 14.117 3.46377 12.01H3.46277ZM12.0098 20.547C10.1112 20.5502 8.26643 19.9164 6.77077 18.747C6.92277 18.432 8.65877 15.091 13.4738 13.41C13.4958 13.4 13.5068 13.4 13.5278 13.388C14.3401 15.4834 14.9505 17.6516 15.3508 19.863C14.2956 20.317 13.1585 20.5498 12.0098 20.547V20.547ZM16.7708 19.082C16.6848 18.562 16.2288 16.067 15.1118 12.998C17.7908 12.575 20.1338 13.269 20.4258 13.367C20.2434 14.5201 19.8246 15.623 19.1956 16.6065C18.5666 17.59 17.741 18.4328 16.7708 19.082V19.082Z" fill="#475569"/>
</svg>
