<svg width="17" height="16" viewBox="0 0 17 16" fill="none" xmlns="http://www.w3.org/2000/svg">
<path d="M8.66661 13.3335C10.0811 13.3335 11.4376 12.7716 12.4378 11.7714C13.438 10.7712 13.9999 9.41465 13.9999 8.00016C13.9999 6.58567 13.438 5.22912 12.4378 4.22893C11.4376 3.22873 10.0811 2.66683 8.66661 2.66683C7.25212 2.66683 5.89556 3.22873 4.89537 4.22893C3.89518 5.22912 3.33327 6.58567 3.33327 8.00016C3.33327 9.41465 3.89518 10.7712 4.89537 11.7714C5.89556 12.7716 7.25212 13.3335 8.66661 13.3335V13.3335ZM8.66661 14.6668C4.98461 14.6668 1.99994 11.6822 1.99994 8.00016C1.99994 4.31816 4.98461 1.3335 8.66661 1.3335C12.3486 1.3335 15.3333 4.31816 15.3333 8.00016C15.3333 11.6822 12.3486 14.6668 8.66661 14.6668Z" fill="#22C55E"/>
</svg>
