<svg width="24" height="25" viewBox="0 0 24 25" fill="none" xmlns="http://www.w3.org/2000/svg">
<path d="M13.4 11.9V6.90002C13.4 6.63481 13.2947 6.38045 13.1071 6.19292C12.9196 6.00538 12.6652 5.90002 12.4 5.90002C12.1348 5.90002 11.8805 6.00538 11.6929 6.19292C11.5054 6.38045 11.4 6.63481 11.4 6.90002V11.9H6.40002C6.13481 11.9 5.88045 12.0054 5.69292 12.1929C5.50538 12.3805 5.40002 12.6348 5.40002 12.9C5.40002 13.1652 5.50538 13.4196 5.69292 13.6071C5.88045 13.7947 6.13481 13.9 6.40002 13.9H11.4V18.9C11.4 19.1652 11.5054 19.4196 11.6929 19.6071C11.8805 19.7947 12.1348 19.9 12.4 19.9C12.6652 19.9 12.9196 19.7947 13.1071 19.6071C13.2947 19.4196 13.4 19.1652 13.4 18.9V13.9H18.4C18.6652 13.9 18.9196 13.7947 19.1071 13.6071C19.2947 13.4196 19.4 13.1652 19.4 12.9C19.4 12.6348 19.2947 12.3805 19.1071 12.1929C18.9196 12.0054 18.6652 11.9 18.4 11.9H13.4Z" fill="#2563EB"/>
</svg>
