<svg width="16" height="16" viewBox="0 0 16 16" fill="none" xmlns="http://www.w3.org/2000/svg">
<path d="M8 13.3335C9.41448 13.3335 10.771 12.7716 11.7712 11.7714C12.7714 10.7712 13.3333 9.41465 13.3333 8.00016C13.3333 6.58567 12.7714 5.22912 11.7712 4.22893C10.771 3.22873 9.41448 2.66683 8 2.66683C6.58551 2.66683 5.22895 3.22873 4.22876 4.22893C3.22856 5.22912 2.66666 6.58567 2.66666 8.00016C2.66666 9.41465 3.22856 10.7712 4.22876 11.7714C5.22895 12.7716 6.58551 13.3335 8 13.3335V13.3335ZM8 14.6668C4.318 14.6668 1.33333 11.6822 1.33333 8.00016C1.33333 4.31816 4.318 1.3335 8 1.3335C11.682 1.3335 14.6667 4.31816 14.6667 8.00016C14.6667 11.6822 11.682 14.6668 8 14.6668Z" fill="#F87171"/>
</svg>
