<svg width="16" height="16" viewBox="0 0 16 16" fill="none" xmlns="http://www.w3.org/2000/svg">
<path d="M8 13.3335C9.41449 13.3335 10.771 12.7716 11.7712 11.7714C12.7714 10.7712 13.3333 9.41465 13.3333 8.00016C13.3333 6.58567 12.7714 5.22912 11.7712 4.22893C10.771 3.22873 9.41449 2.66683 8 2.66683C6.58551 2.66683 5.22896 3.22873 4.22877 4.22893C3.22857 5.22912 2.66667 6.58567 2.66667 8.00016C2.66667 9.41465 3.22857 10.7712 4.22877 11.7714C5.22896 12.7716 6.58551 13.3335 8 13.3335V13.3335ZM8 14.6668C4.318 14.6668 1.33334 11.6822 1.33334 8.00016C1.33334 4.31816 4.318 1.3335 8 1.3335C11.682 1.3335 14.6667 4.31816 14.6667 8.00016C14.6667 11.6822 11.682 14.6668 8 14.6668Z" fill="#F87171"/>
</svg>
