<svg width="24" height="24" viewBox="0 0 24 24" fill="none" xmlns="http://www.w3.org/2000/svg">
<path d="M14.738 7.97181L5.69997 17.0098L5.10897 19.0258L7.08397 18.4548L16.152 9.38681L14.738 7.97181ZM16.28 6.42981L17.694 7.84381L19.012 6.52581C19.1057 6.43205 19.1584 6.30489 19.1584 6.17231C19.1584 6.03973 19.1057 5.91257 19.012 5.81881L18.304 5.11181C18.2102 5.01807 18.0831 4.96542 17.9505 4.96542C17.8179 4.96542 17.6907 5.01807 17.597 5.11181L16.281 6.42981H16.28ZM19.719 3.69781L20.426 4.40481C20.8947 4.87363 21.1579 5.5094 21.1579 6.17231C21.1579 6.83522 20.8947 7.47099 20.426 7.93981L8.13397 20.2328L3.91397 21.4528C3.74196 21.5024 3.55979 21.5049 3.38648 21.4601C3.21317 21.4152 3.05507 21.3247 2.92869 21.1979C2.8023 21.0711 2.71228 20.9127 2.668 20.7393C2.62372 20.5658 2.62682 20.3837 2.67697 20.2118L3.92497 15.9568L16.185 3.69681C16.6538 3.22813 17.2896 2.96484 17.9525 2.96484C18.6154 2.96484 19.2512 3.22813 19.72 3.69681L19.719 3.69781Z" fill="#475569"/>
</svg>
