<svg width="24" height="25" viewBox="0 0 24 25" fill="none" xmlns="http://www.w3.org/2000/svg">
<path d="M15.586 10.8569L11.636 6.90687C11.4538 6.71827 11.353 6.46567 11.3553 6.20347C11.3576 5.94127 11.4628 5.69046 11.6482 5.50505C11.8336 5.31964 12.0844 5.21447 12.3466 5.2122C12.6088 5.20992 12.8614 5.31071 13.05 5.49287L18.707 11.1499C18.8002 11.2425 18.8741 11.3527 18.9246 11.474C18.9751 11.5954 19.001 11.7255 19.001 11.8569C19.001 11.9883 18.9751 12.1184 18.9246 12.2397C18.8741 12.3611 18.8002 12.4712 18.707 12.5639L13.05 18.2209C12.9578 18.3164 12.8474 18.3926 12.7254 18.445C12.6034 18.4974 12.4722 18.525 12.3394 18.5261C12.2066 18.5273 12.0749 18.502 11.952 18.4517C11.8291 18.4014 11.7175 18.3272 11.6236 18.2333C11.5297 18.1394 11.4555 18.0277 11.4052 17.9048C11.3549 17.7819 11.3296 17.6502 11.3307 17.5175C11.3319 17.3847 11.3595 17.2535 11.4119 17.1315C11.4643 17.0095 11.5405 16.8991 11.636 16.8069L15.586 12.8569H6C5.73478 12.8569 5.48043 12.7515 5.29289 12.564C5.10536 12.3764 5 12.1221 5 11.8569C5 11.5917 5.10536 11.3373 5.29289 11.1498C5.48043 10.9622 5.73478 10.8569 6 10.8569H15.586V10.8569Z" fill="#2563EB"/>
</svg>
