<svg width="86" height="17" viewBox="0 0 86 17" fill="none" xmlns="http://www.w3.org/2000/svg">
<path d="M28.14 4.74992C27.2974 4.7519 26.4744 5.00368 25.7749 5.47342C25.0755 5.94316 24.531 6.60976 24.2104 7.38893C23.8898 8.16809 23.8075 9.02483 23.9738 9.8508C24.1401 10.6768 24.5476 11.4349 25.1448 12.0293C25.742 12.6236 26.502 13.0276 27.3287 13.19C28.1555 13.3524 29.0118 13.2661 29.7895 12.9418C30.5671 12.6175 31.2311 12.07 31.6976 11.3683C32.164 10.6667 32.412 9.84247 32.41 8.99992C32.4181 8.43786 32.3131 7.8799 32.1012 7.35927C31.8892 6.83863 31.5746 6.36598 31.1762 5.96943C30.7778 5.57288 30.3037 5.26056 29.7821 5.05105C29.2604 4.84154 28.702 4.73913 28.14 4.74992V4.74992ZM28.14 11.5799C27.6236 11.616 27.1082 11.496 26.6609 11.2353C26.2137 10.9747 25.8552 10.5855 25.632 10.1184C25.4088 9.65125 25.3314 9.1278 25.4097 8.61607C25.4879 8.10434 25.7184 7.628 26.0709 7.24896C26.4235 6.86992 26.882 6.60572 27.3867 6.4907C27.8915 6.37568 28.4192 6.41516 28.9012 6.60401C29.3832 6.79286 29.7972 7.12234 30.0895 7.54963C30.3818 7.97692 30.5387 8.48224 30.54 8.99992C30.5561 9.32794 30.5063 9.65586 30.3937 9.96434C30.2811 10.2728 30.1078 10.5556 29.8841 10.7961C29.6604 11.0366 29.3909 11.2298 29.0913 11.3644C28.7918 11.499 28.4683 11.5723 28.14 11.5799ZM18.82 4.74992C17.9774 4.7519 17.1544 5.00368 16.4549 5.47342C15.7555 5.94316 15.211 6.60976 14.8904 7.38893C14.5698 8.16809 14.4875 9.02483 14.6538 9.8508C14.8201 10.6768 15.2276 11.4349 15.8248 12.0293C16.422 12.6236 17.182 13.0276 18.0087 13.19C18.8355 13.3524 19.6918 13.2661 20.4695 12.9418C21.2471 12.6175 21.9111 12.07 22.3776 11.3683C22.844 10.6667 23.0919 9.84247 23.09 8.99992C23.0981 8.43786 22.9931 7.8799 22.7812 7.35927C22.5692 6.83863 22.2546 6.36598 21.8562 5.96943C21.4578 5.57288 20.9837 5.26056 20.4621 5.05105C19.9404 4.84154 19.382 4.73913 18.82 4.74992V4.74992ZM18.82 11.5799C18.3036 11.616 17.7882 11.496 17.3409 11.2353C16.8937 10.9747 16.5352 10.5855 16.312 10.1184C16.0888 9.65125 16.0114 9.1278 16.0897 8.61607C16.1679 8.10434 16.3984 7.628 16.7509 7.24896C17.1035 6.86992 17.562 6.60572 18.0667 6.4907C18.5715 6.37568 19.0992 6.41516 19.5812 6.60401C20.0632 6.79286 20.4772 7.12234 20.7695 7.54963C21.0618 7.97692 21.2187 8.48224 21.22 8.99992C21.2361 9.32794 21.1863 9.65586 21.0737 9.96434C20.9611 10.2728 20.7878 10.5556 20.5641 10.7961C20.3404 11.0366 20.0709 11.2298 19.7713 11.3644C19.4718 11.499 19.1483 11.5723 18.82 11.5799ZM7.73998 6.05992V7.85992H12.06C11.9922 8.70773 11.6398 9.50772 11.06 10.1299C10.6266 10.5714 10.1054 10.9171 9.53009 11.1444C8.95474 11.3718 8.33808 11.4759 7.71998 11.4499C6.44694 11.4499 5.22604 10.9442 4.32586 10.044C3.42569 9.14386 2.91998 7.92296 2.91998 6.64992C2.91998 5.37689 3.42569 4.15599 4.32586 3.25581C5.22604 2.35564 6.44694 1.84992 7.71998 1.84992C8.94043 1.83177 10.1189 2.29525 11 3.13992L12.27 1.86992C11.674 1.28043 10.9663 0.815813 10.1884 0.503295C9.41057 0.190777 8.57817 0.0366426 7.73998 0.0499221C6.85097 0.0153242 5.96413 0.16055 5.1326 0.476894C4.30106 0.793237 3.54195 1.27419 2.90073 1.89093C2.25952 2.50768 1.74941 3.24751 1.40097 4.06612C1.05253 4.88472 0.872925 5.76524 0.872925 6.65492C0.872925 7.5446 1.05253 8.42512 1.40097 9.24372C1.74941 10.0623 2.25952 10.8022 2.90073 11.4189C3.54195 12.0357 4.30106 12.5166 5.1326 12.833C5.96413 13.1493 6.85097 13.2945 7.73998 13.2599C8.5954 13.2941 9.44837 13.1469 10.2429 12.8281C11.0374 12.5092 11.7555 12.0259 12.35 11.4099C13.4001 10.2563 13.9596 8.73911 13.91 7.17992C13.9136 6.80465 13.8834 6.42981 13.82 6.05992H7.73998ZM53.05 7.45992C52.7892 6.69266 52.3015 6.02271 51.6515 5.53877C51.0015 5.05484 50.2198 4.77974 49.41 4.74992C48.863 4.74885 48.3216 4.85999 47.8192 5.07646C47.3169 5.29293 46.8643 5.61013 46.4894 6.00846C46.1145 6.40678 45.8252 6.87777 45.6396 7.39231C45.4539 7.90684 45.3758 8.45399 45.41 8.99992C45.4014 9.91277 45.6884 10.8039 46.2281 11.5402C46.7678 12.2765 47.5312 12.8184 48.4042 13.0851C49.2773 13.3517 50.2132 13.3288 51.0722 13.0196C51.9311 12.7105 52.667 12.1318 53.17 11.3699L51.72 10.3699C51.5038 10.7302 51.1972 11.0277 50.8306 11.2329C50.464 11.4382 50.0501 11.544 49.63 11.5399C49.1965 11.5578 48.7678 11.4442 48.4002 11.214C48.0325 10.9837 47.7431 10.6477 47.57 10.2499L53.26 7.89992L53.05 7.45992ZM47.25 8.87992C47.2297 8.5693 47.2716 8.25776 47.3733 7.96354C47.4749 7.66932 47.6342 7.39833 47.8419 7.16645C48.0496 6.93456 48.3014 6.74645 48.5827 6.61311C48.864 6.47977 49.169 6.40389 49.48 6.38992C49.8022 6.37025 50.123 6.44611 50.4023 6.60799C50.6816 6.76987 50.9069 7.01056 51.05 7.29992L47.25 8.87992ZM42.63 12.9999H44.5V0.499923H42.63V12.9999ZM39.57 5.69992H39.5C39.2206 5.38178 38.8759 5.12773 38.4893 4.95514C38.1027 4.78255 37.6833 4.69549 37.26 4.69992C36.1672 4.75292 35.1366 5.22434 34.382 6.01651C33.6273 6.80867 33.2063 7.86082 33.2063 8.95492C33.2063 10.049 33.6273 11.1012 34.382 11.8933C35.1366 12.6855 36.1672 13.1569 37.26 13.2099C37.6839 13.2184 38.1046 13.1332 38.4918 12.9603C38.879 12.7875 39.2233 12.5312 39.5 12.2099H39.57V12.8199C39.57 14.4499 38.7 15.3199 37.3 15.3199C36.8323 15.3096 36.3782 15.1606 35.9954 14.8918C35.6126 14.6229 35.3183 14.2464 35.15 13.8099L33.53 14.4799C33.8295 15.2322 34.3502 15.8758 35.0234 16.3258C35.6965 16.7757 36.4904 17.0108 37.3 16.9999C39.49 16.9999 41.3 15.7099 41.3 12.5699V4.99992H39.57V5.69992ZM37.42 11.5799C36.7648 11.5391 36.1498 11.25 35.7003 10.7716C35.2508 10.2932 35.0005 9.66139 35.0005 9.00492C35.0005 8.34846 35.2508 7.71668 35.7003 7.23826C36.1498 6.75984 36.7648 6.47077 37.42 6.42992C37.7402 6.44374 38.0544 6.52184 38.3438 6.65956C38.6333 6.79728 38.8921 6.99182 39.1048 7.2316C39.3175 7.47137 39.4798 7.75149 39.5821 8.05528C39.6843 8.35907 39.7244 8.68032 39.7 8.99992C39.7273 9.32061 39.6892 9.64351 39.5881 9.94908C39.4871 10.2546 39.3251 10.5365 39.1119 10.7777C38.8988 11.0189 38.639 11.2143 38.3482 11.3522C38.0573 11.4901 37.7416 11.5676 37.42 11.5799V11.5799ZM61.81 0.499923H57.33V12.9999H59.2V8.25992H61.81C62.3429 8.29821 62.8781 8.22629 63.382 8.04865C63.8859 7.87101 64.3479 7.59145 64.739 7.22742C65.1301 6.86338 65.4421 6.42267 65.6553 5.93276C65.8686 5.44285 65.9787 4.91425 65.9787 4.37992C65.9787 3.84559 65.8686 3.317 65.6553 2.82709C65.4421 2.33718 65.1301 1.89647 64.739 1.53243C64.3479 1.16839 63.8859 0.888838 63.382 0.711196C62.8781 0.533554 62.3429 0.461634 61.81 0.499923V0.499923ZM61.81 6.49992H59.2V2.23992H61.85C62.131 2.23992 62.4093 2.29527 62.6689 2.40282C62.9286 2.51036 63.1645 2.668 63.3632 2.86671C63.5619 3.06543 63.7195 3.30134 63.8271 3.56098C63.9346 3.82062 63.99 4.09889 63.99 4.37992C63.99 4.66095 63.9346 4.93923 63.8271 5.19887C63.7195 5.4585 63.5619 5.69441 63.3632 5.89313C63.1645 6.09185 62.9286 6.24948 62.6689 6.35702C62.4093 6.46457 62.131 6.51992 61.85 6.51992L61.81 6.49992ZM73.35 4.70992C72.669 4.66793 71.9906 4.82647 71.3988 5.16594C70.8069 5.5054 70.3276 6.0109 70.02 6.61992L71.67 7.30992C71.8367 7.00933 72.0869 6.76343 72.3904 6.60195C72.6938 6.44047 73.0375 6.3703 73.38 6.39992C73.6174 6.3722 73.8579 6.39202 74.0875 6.45825C74.3172 6.52447 74.5313 6.63576 74.7175 6.78563C74.9037 6.9355 75.0581 7.12095 75.1719 7.33115C75.2856 7.54135 75.3564 7.77209 75.38 8.00992V8.12992C74.7786 7.81384 74.1093 7.64909 73.43 7.64992C71.65 7.64992 69.83 8.64992 69.83 10.4699C69.8476 10.8568 69.9428 11.2361 70.1098 11.5855C70.2769 11.9348 70.5125 12.247 70.8026 12.5035C71.0927 12.7601 71.4314 12.9557 71.7986 13.0787C72.1657 13.2018 72.5539 13.2498 72.94 13.2199C73.4092 13.2459 73.8769 13.1466 74.2952 12.9322C74.7134 12.7178 75.0671 12.3961 75.32 11.9999H75.38V12.9999H77.18V8.18992C77.18 5.99992 75.52 4.72992 73.39 4.72992L73.35 4.70992ZM73.12 11.5599C72.51 11.5599 71.66 11.2499 71.66 10.4999C71.66 9.49992 72.72 9.15992 73.66 9.15992C74.254 9.14526 74.8411 9.29031 75.36 9.57992C75.2972 10.123 75.0397 10.6249 74.6352 10.9926C74.2307 11.3604 73.7066 11.569 73.16 11.5799L73.12 11.5599ZM83.74 4.99992L81.6 10.4199H81.54L79.32 4.99992H77.32L80.65 12.5799L78.75 16.7899H80.7L85.82 4.99992H83.74ZM66.94 12.9999H68.8V0.499923H66.94V12.9999Z" fill="white"/>
</svg>
